<?xml version="1.0" standalone="no"?>
<!DOCTYPE svg PUBLIC "-//W3C//DTD SVG 20010904//EN"
 "http://www.w3.org/TR/2001/REC-SVG-20010904/DTD/svg10.dtd">
<svg version="1.0" xmlns="http://www.w3.org/2000/svg"
 width="750.000000pt" height="750.000000pt" viewBox="0 0 750.000000 750.000000"
 preserveAspectRatio="xMidYMid meet">

<g transform="translate(0.000000,750.000000) scale(0.100000,-0.100000)"
fill="#000000" stroke="none">
<path d="M330 7231 c27 -5 31 -8 17 -13 -9 -4 -29 -3 -43 2 -17 7 -23 7 -19
-1 4 -6 -1 -16 -11 -23 -12 -9 -14 -15 -6 -20 8 -5 11 -38 10 -94 l-2 -87 -6
75 c-4 41 -6 -80 -6 -270 0 -229 2 -292 6 -188 3 86 8 160 13 164 4 4 7 -65 7
-154 0 -90 4 -162 9 -162 5 0 7 -9 4 -20 -6 -24 0 -25 32 -4 18 12 28 13 44 4
26 -14 27 -26 1 -40 -14 -8 -26 -8 -40 0 -24 13 -25 3 -6 -50 l13 -35 13 25
c13 23 14 24 21 5 12 -32 10 -45 -8 -45 -15 0 -13 -4 7 -20 l25 -20 -25 -20
c-14 -11 -19 -20 -12 -20 7 0 12 -15 12 -40 0 -22 5 -40 10 -40 6 0 10 5 10
10 0 13 37 50 50 50 6 0 10 -6 10 -14 0 -14 49 -36 81 -36 16 0 19 -8 19 -45
0 -41 -2 -45 -25 -45 -14 0 -25 -4 -25 -9 0 -5 11 -12 25 -15 18 -5 25 -13 25
-31 0 -29 8 -32 26 -7 12 16 14 16 33 -5 13 -14 21 -36 21 -57 0 -34 -1 -35
-42 -39 -24 -2 -5 -4 42 -4 47 0 75 2 63 4 -21 4 -23 10 -22 56 0 29 3 46 6
40 2 -7 18 -13 34 -13 27 0 29 2 29 40 0 33 3 40 20 40 17 0 20 7 20 40 0 36
3 40 25 40 23 0 25 -4 25 -40 0 -33 3 -40 20 -40 17 0 20 -7 20 -40 0 -22 -4
-40 -10 -40 -5 0 -10 -18 -10 -40 0 -22 5 -40 10 -40 6 0 10 -11 10 -25 0 -14
6 -25 13 -25 20 0 46 -37 59 -85 12 -43 14 -45 49 -45 21 0 40 6 43 13 6 11 0
-90 -9 -163 -2 -19 -2 -27 1 -17 4 11 16 17 37 17 18 0 43 3 56 7 22 6 23 4
16 -36 -4 -27 -3 -41 4 -41 6 0 11 -18 11 -39 0 -29 -5 -41 -17 -44 -10 -3 17
-5 60 -6 54 -1 77 -5 77 -13 1 -25 39 37 42 67 3 34 20 37 28 4 5 -20 7 -20
19 -5 19 23 31 20 31 -9 0 -14 6 -25 13 -25 8 0 11 -14 9 -45 l-4 -45 51 0
c38 0 51 -4 51 -14 0 -12 7 -13 32 -5 44 12 48 12 48 -6 0 -10 10 -15 28 -15
34 0 57 14 48 29 -4 6 -3 11 2 11 5 0 12 -19 16 -42 5 -32 9 -39 16 -28 5 8
10 31 10 51 0 21 8 47 20 62 24 30 25 37 5 37 -13 0 -14 4 -4 22 9 17 13 19
17 8 8 -30 33 -79 42 -85 15 -9 12 -25 -5 -25 -16 0 -20 -12 -8 -23 3 -4 12 1
19 11 10 14 30 17 106 19 51 1 85 -1 76 -3 -13 -4 -18 -16 -18 -45 0 -37 -2
-39 -30 -39 -28 0 -30 2 -30 40 0 33 -3 40 -20 40 -17 0 -20 -7 -20 -40 0 -29
-4 -40 -15 -40 -8 0 -15 7 -15 15 0 8 -4 15 -9 15 -6 0 -7 -24 -4 -55 5 -47 3
-55 -11 -55 -12 0 -16 10 -16 40 0 22 -4 40 -10 40 -5 0 -10 -18 -10 -40 0
-28 -4 -40 -14 -40 -17 0 -28 -89 -13 -108 7 -9 6 -17 -1 -24 -7 -7 -13 -35
-13 -62 l-2 -51 -7 50 c-5 28 -9 87 -9 132 -1 72 -4 84 -21 93 -20 11 -21 9
-15 -42 4 -29 9 -59 11 -67 2 -7 -1 -20 -7 -27 -9 -11 -8 -18 1 -29 10 -11 9
-18 -3 -30 -17 -17 -47 -20 -47 -5 0 6 -9 10 -20 10 -17 0 -20 7 -20 40 l0 40
40 0 40 0 0 40 0 40 -60 0 -60 0 0 -80 c0 -64 3 -80 15 -80 11 0 15 -11 16
-37 0 -41 17 -94 18 -60 1 9 6 17 12 17 7 0 18 -8 25 -17 13 -17 13 -17 14 0
0 9 -4 17 -10 17 -5 0 -10 5 -10 10 0 6 9 10 19 10 18 0 19 -7 19 -75 -1 -41
-5 -75 -9 -75 -5 0 -9 -16 -9 -35 0 -19 5 -35 10 -35 6 0 10 -9 10 -20 0 -11
-4 -20 -10 -20 -5 0 -10 9 -10 20 0 13 -7 20 -20 20 -16 0 -20 7 -20 35 0 28
4 35 20 35 13 0 20 7 20 20 0 12 -9 30 -20 42 l-20 22 0 -42 c0 -23 -4 -42
-10 -42 -5 0 -10 -16 -10 -35 0 -19 5 -35 10 -35 14 0 12 -37 -2 -44 -7 -3 24
-3 70 0 l82 6 0 -41 c0 -34 -3 -41 -20 -41 -11 0 -20 -4 -20 -10 0 -16 37 -30
82 -30 24 0 49 -5 56 -12 10 -10 18 -7 38 15 23 25 24 29 10 43 -20 20 -20 40
-1 48 10 4 15 -1 15 -14 0 -11 2 -20 5 -20 9 0 45 40 45 50 0 14 27 12 34 -2
3 -7 3 -1 0 13 -3 16 0 30 10 38 9 8 16 20 16 27 0 8 10 14 24 14 13 0 27 6
29 13 4 10 6 10 6 0 1 -7 8 -13 16 -13 11 0 15 -11 15 -40 0 -30 4 -40 16 -40
27 0 16 -119 -13 -146 -13 -12 -23 -24 -23 -28 0 -4 -11 -19 -25 -34 -28 -31
-32 -50 -10 -58 11 -5 15 -22 15 -70 0 -36 -4 -64 -10 -64 -11 0 -14 -68 -4
-93 5 -15 54 -12 54 4 0 5 11 9 25 9 23 0 25 -4 25 -40 0 -31 -4 -40 -17 -40
-16 0 -18 -9 -15 -80 2 -50 -1 -80 -8 -80 -5 0 -10 -17 -10 -39 0 -28 -6 -42
-21 -53 -18 -12 -20 -18 -11 -34 8 -16 8 -24 -1 -34 -17 -19 22 8 46 32 18 18
12 23 -22 19 -7 -2 -10 3 -6 9 4 6 15 8 25 5 12 -4 22 0 28 11 8 15 10 14 14
-4 4 -15 -11 -32 -69 -78 -41 -32 -107 -92 -147 -134 -40 -41 -69 -71 -64 -65
13 15 9 28 -6 16 -10 -8 -16 -8 -25 2 -11 14 -6 27 11 27 5 0 6 -5 2 -12 -4
-6 -3 -8 3 -5 8 5 8 20 0 49 l-10 42 -16 -32 c-15 -32 -15 -32 -95 -34 -45 -1
-62 -3 -39 -5 34 -3 42 -8 45 -26 l3 -22 22 23 c13 12 31 22 41 22 14 0 17 -8
16 -37 -1 -21 -3 -41 -3 -44 -1 -3 -12 -5 -25 -4 -23 3 -24 1 -14 -21 l12 -25
22 28 c14 17 21 35 17 47 -3 12 -1 16 6 12 6 -4 11 -12 11 -18 0 -11 -90 -148
-97 -148 -2 0 -1 5 3 12 4 7 3 8 -4 4 -6 -4 -9 -13 -6 -21 4 -10 -3 -18 -20
-25 -14 -5 -26 -15 -26 -21 0 -8 5 -7 17 2 9 8 -1 -17 -22 -56 -21 -38 -45
-74 -52 -78 -7 -5 -12 -11 -9 -15 2 -4 1 -39 -3 -79 -4 -39 -3 -70 0 -67 4 2
10 0 14 -6 3 -5 24 -10 45 -10 28 0 38 -4 34 -13 -2 -7 -11 -60 -18 -118 -9
-68 -14 -90 -16 -64 -2 39 -3 39 -10 10 -12 -47 -11 -67 2 -59 8 5 9 -4 5 -32
-4 -21 -7 -98 -7 -171 l0 -131 -36 -21 c-33 -20 -76 -31 -46 -12 11 7 11 9 -1
14 -11 4 -15 0 -12 -13 3 -13 -7 -25 -31 -39 -19 -12 -32 -15 -28 -9 4 7 -4 1
-18 -14 -31 -32 -83 -60 -93 -50 -5 4 -5 1 -1 -6 7 -11 -6 -17 -29 -12 -5 1
-7 -1 -3 -5 4 -4 -23 -30 -60 -57 -37 -28 -83 -66 -104 -86 -20 -19 -40 -32
-46 -28 -5 3 -18 -4 -28 -17 l-19 -22 23 19 c41 35 23 5 -34 -57 -68 -74 -80
-101 -59 -133 8 -13 25 -24 36 -24 13 0 18 -4 13 -12 -5 -8 -2 -9 11 -4 16 6
16 4 4 -11 -41 -55 -52 -63 -68 -50 -14 11 -14 10 -3 -5 12 -15 11 -22 -8 -48
-12 -17 -26 -27 -32 -24 -7 4 -8 2 -4 -4 4 -6 -5 -29 -20 -52 -30 -45 -46 -55
-20 -13 l17 28 -20 -23 c-11 -13 -18 -29 -15 -36 3 -7 -10 -29 -28 -48 -35
-38 -38 -42 -38 -59 0 -5 -4 -8 -9 -4 -5 3 -13 0 -17 -6 -4 -8 -3 -9 4 -5 7 4
12 6 12 4 0 -16 -149 -276 -155 -270 -5 4 -5 2 -1 -5 9 -16 -14 -64 -27 -56
-6 3 -7 1 -3 -6 7 -10 -56 -190 -74 -216 -13 -17 -68 -197 -79 -258 -13 -70
-6 -109 25 -140 l23 -23 -18 -60 c-10 -32 -26 -105 -36 -161 l-18 -103 -117 0
c-77 0 -120 4 -128 12 -9 9 -12 9 -12 1 0 -18 25 -22 169 -25 l134 -2 18 99
c28 159 75 297 161 469 16 32 27 60 25 63 -8 7 -64 -79 -108 -166 -22 -45 -42
-81 -44 -81 -2 0 -11 7 -19 16 -34 33 -17 118 64 319 26 66 53 138 60 160 15
49 148 317 198 400 32 52 181 264 257 365 15 19 49 60 78 90 93 101 101 110
89 110 -6 0 -37 -25 -70 -55 -40 -37 -71 -57 -98 -63 -48 -10 -74 -5 -74 14 0
23 198 215 290 281 83 59 299 188 304 181 1 -1 8 -27 14 -57 42 -190 94 -259
154 -204 10 9 20 14 22 12 2 -2 19 -36 39 -74 115 -229 381 -474 452 -415 13
11 31 -2 113 -81 167 -162 369 -292 453 -292 50 0 73 21 73 67 0 28 3 33 15
26 40 -22 307 -258 443 -392 65 -63 118 -113 118 -112 0 19 -91 136 -154 200
-192 191 -351 323 -490 405 -92 54 -119 63 -68 23 38 -30 88 -100 97 -136 19
-74 -78 -49 -248 65 -131 88 -300 247 -362 341 -46 69 -73 102 -79 96 -3 -3 9
-27 26 -53 31 -48 43 -116 22 -124 -17 -6 -101 56 -167 121 -141 142 -242 307
-278 453 l-24 98 -5 -92 c-5 -99 -17 -126 -48 -107 -11 7 -27 51 -45 120 -25
96 -28 126 -27 252 0 153 11 287 36 444 13 82 23 112 65 189 27 50 48 93 46
96 -2 2 -33 -39 -67 -91 -35 -52 -73 -100 -86 -107 -60 -32 -72 37 -24 139 40
85 154 250 237 344 109 123 313 273 490 362 121 60 351 136 415 136 24 0 24
19 -12 -355 -28 -282 -57 -664 -65 -837 -4 -86 -11 -146 -16 -142 -14 8 -65
112 -79 161 -7 23 -16 40 -20 38 -24 -15 63 -220 142 -335 198 -290 211 -305
397 -495 169 -172 201 -209 201 -235 0 -32 -28 -30 -81 6 -79 53 -79 51 -4
-22 211 -207 313 -353 404 -574 29 -69 62 -147 75 -175 30 -64 70 -188 91
-290 10 -44 24 -109 32 -145 8 -37 17 -151 20 -262 l6 -198 27 0 28 0 -4 93
c-12 280 -18 336 -46 464 -11 50 -10 54 17 95 89 135 198 249 325 341 98 71
220 168 239 191 12 14 16 14 38 -4 14 -11 39 -20 55 -20 75 0 225 118 345 272
35 45 40 48 83 48 35 0 58 8 93 31 70 46 114 119 189 308 9 24 9 24 27 5 16
-16 17 -28 11 -79 -5 -33 -9 -85 -9 -116 -1 -39 -6 -61 -17 -70 -26 -22 -83
-145 -100 -216 -12 -51 -16 -145 -19 -388 -5 -343 -12 -502 -25 -510 -9 -6
-82 183 -111 290 -12 44 -22 110 -23 147 -1 74 -11 89 -22 32 -11 -57 12 -183
52 -296 116 -325 143 -440 130 -559 -6 -55 -5 -59 13 -59 40 0 40 114 1 277
-18 75 -18 87 -5 150 10 47 18 196 24 463 11 424 17 474 68 573 l27 52 6 -38
c11 -63 18 -52 24 40 16 242 36 338 88 430 51 92 193 200 285 219 l30 6 6 -76
c4 -49 3 -85 -5 -101 -12 -27 -24 -32 -31 -12 -2 6 -8 9 -12 5 -14 -13 47
-101 119 -173 96 -94 230 -188 324 -224 131 -50 326 -74 417 -51 25 6 21 8
-25 9 -54 1 -238 26 -245 33 -2 1 5 50 14 106 14 89 20 107 41 122 14 10 54
52 90 94 35 42 71 76 78 76 28 0 151 -72 205 -120 80 -73 107 -132 107 -239 0
-84 -13 -173 -44 -296 -8 -33 -24 -97 -35 -143 -12 -46 -21 -86 -21 -90 0 -3
13 7 28 22 25 23 30 25 42 12 15 -20 9 -47 -34 -139 -18 -40 -43 -92 -54 -117
-12 -25 -46 -103 -77 -174 -30 -71 -65 -142 -76 -158 -30 -42 -18 -44 20 -3
34 37 70 45 91 20 19 -23 6 -58 -89 -225 -202 -356 -189 -330 -153 -330 23 0
31 9 57 60 16 33 33 60 37 60 4 0 7 3 6 8 -4 14 176 335 183 328 2 -3 5 24 7
59 3 64 1 69 -42 99 -18 12 -18 17 -7 45 14 32 31 42 31 17 0 -8 -6 -16 -12
-18 -9 -3 -10 -11 -2 -27 9 -21 11 -22 23 -7 12 14 12 16 -3 10 -9 -3 -16 -1
-16 5 0 6 5 11 10 11 13 0 13 33 0 46 -13 13 -1 45 96 249 66 140 69 201 14
224 -15 5 -13 21 17 146 58 249 62 361 16 465 -9 19 -15 39 -14 43 1 5 -2 6
-7 3 -5 -3 -16 4 -25 15 -20 23 -22 33 -4 23 8 -5 8 -3 -2 9 -7 9 -17 15 -21
12 -10 -6 -86 55 -82 67 1 5 -1 7 -6 4 -5 -3 -39 11 -75 30 -74 39 -74 34 -20
116 14 20 32 61 41 90 25 76 48 111 92 131 103 48 149 221 90 338 -10 19 -26
41 -34 48 -9 7 -14 17 -11 21 3 5 0 12 -6 16 -8 4 -9 3 -5 -4 10 -16 -3 -14
-34 3 -14 8 -43 15 -65 16 -22 1 -31 3 -20 6 43 9 102 36 135 61 19 15 39 26
43 24 5 -1 6 2 2 7 -3 6 1 21 9 33 41 63 27 170 -31 237 -64 75 -152 101 -259
76 -35 -8 -69 -13 -76 -11 -7 1 -9 1 -4 -2 5 -2 -11 -14 -35 -27 -37 -18 -51
-20 -88 -12 -31 7 -56 6 -85 -4 -23 -7 -45 -12 -49 -11 -5 2 -6 -2 -3 -7 4 -5
0 -13 -7 -18 -24 -15 -56 -69 -69 -116 -6 -25 -15 -44 -18 -42 -4 2 -16 -5
-28 -15 -23 -22 -37 -26 -26 -9 5 8 1 8 -13 0 -11 -6 -24 -7 -28 -3 -5 4 -5 2
-1 -5 4 -7 14 -9 23 -6 10 4 14 2 11 -7 -2 -7 -14 -15 -27 -17 -13 -2 -20 1
-16 7 3 5 0 7 -9 4 -12 -5 -13 -9 -3 -19 8 -9 16 -10 25 -3 7 6 12 7 12 1 0
-5 -11 -16 -25 -23 -31 -17 -96 -86 -88 -94 3 -3 -17 -31 -46 -61 -29 -30 -62
-79 -75 -107 -28 -64 -46 -179 -46 -292 0 -80 -1 -84 -24 -90 -13 -3 -32 -9
-43 -13 -17 -6 -17 -5 1 15 15 17 16 22 5 22 -8 0 -22 -9 -32 -21 -12 -14 -25
-18 -40 -14 -17 5 -19 4 -7 -4 8 -6 24 -8 35 -5 17 4 18 4 3 -6 -9 -5 -35 -12
-58 -14 -23 -2 -45 -8 -48 -12 -4 -4 5 -4 21 0 36 9 34 2 -9 -23 -41 -24 -67
-28 -38 -5 18 14 18 15 -4 4 -17 -8 -21 -15 -13 -24 11 -13 -3 -36 -21 -36
-13 0 -9 18 5 23 6 2 4 3 -6 1 -11 -1 -17 2 -14 10 6 16 -75 19 -86 3 -6 -8
-7 -5 -3 6 3 10 6 34 6 53 0 21 4 33 10 29 6 -3 10 -2 10 2 0 5 16 8 36 8 31
-1 34 0 20 10 -14 11 -14 14 -2 24 11 9 15 9 18 0 2 -7 4 5 4 25 l0 37 -20
-38 c-11 -21 -19 -41 -18 -45 2 -9 -22 -11 -31 -2 -3 3 6 16 21 29 25 22 27
29 26 102 0 62 -8 99 -36 180 -20 57 -32 100 -27 97 5 -3 9 -12 9 -20 0 -9 5
-12 12 -8 6 4 8 3 5 -4 -4 -5 -4 -19 0 -30 5 -12 8 34 8 101 -1 67 3 132 8
144 8 17 3 35 -17 78 -29 58 -29 115 0 115 8 0 14 7 14 15 0 8 -4 15 -8 15
-20 0 -42 -39 -42 -73 0 -20 -3 -38 -7 -40 -5 -3 -8 17 -8 43 0 26 4 46 8 43
5 -3 7 5 5 18 -2 20 -8 24 -36 22 -23 -1 -32 3 -29 11 3 7 -1 13 -9 13 -17 0
-17 -3 -4 -28 6 -10 8 -19 6 -19 -3 0 -12 13 -21 30 -8 16 -30 47 -47 67 -18
21 -23 30 -12 20 11 -9 24 -14 29 -10 4 5 5 2 1 -4 -4 -7 -3 -13 3 -13 5 0 12
-9 16 -19 3 -11 13 -18 23 -16 9 2 23 4 30 4 8 1 12 24 12 82 l0 81 34 -4 c43
-5 38 10 -14 42 -42 26 -51 40 -25 40 8 0 24 9 35 20 12 12 25 18 30 15 5 -3
12 5 15 17 3 13 19 29 36 37 16 7 29 20 29 28 0 21 -29 42 -57 43 -18 0 -23 6
-23 28 0 16 8 34 20 42 14 10 20 26 20 52 0 21 -4 38 -10 38 -5 0 -10 16 -10
36 0 28 7 44 30 66 28 26 30 33 30 103 0 54 4 76 14 82 8 4 26 25 40 45 l25
38 -22 0 c-23 0 -23 2 -19 93 4 86 8 98 37 111 6 3 2 10 -7 16 -26 16 -23 44
3 37 11 -3 28 -3 37 1 14 5 12 7 -8 13 -15 4 7 7 57 8 55 1 83 5 86 14 3 6 6
-4 7 -23 1 -19 5 -46 9 -60 6 -19 9 -11 13 37 7 75 20 101 28 58 3 -16 2 -33
-3 -36 -4 -3 -5 -19 -1 -35 6 -25 8 -26 15 -9 6 17 8 16 8 -7 1 -24 5 -28 30
-28 21 0 31 6 37 23 6 16 9 6 11 -40 3 -55 7 -63 23 -63 17 0 20 7 20 40 0 35
3 40 23 41 15 0 9 5 -18 13 l-40 12 52 13 c28 7 60 19 70 26 10 8 39 15 66 15
37 0 47 -4 47 -16 0 -11 -6 -15 -17 -11 -63 20 -63 20 -63 0 0 -12 -12 -24
-32 -32 -31 -13 -32 -14 -9 -18 33 -7 112 25 138 56 15 17 23 39 23 64 0 30 4
37 20 37 14 0 20 7 21 23 l0 22 16 -22 c19 -28 59 -32 47 -5 -4 9 -10 48 -13
85 -5 51 -11 72 -25 82 -16 12 -21 12 -33 -1 -22 -22 -42 -17 -55 14 l-12 27
-4 -32 c-3 -31 -6 -33 -42 -33 -22 0 -40 5 -43 13 -4 10 -7 10 -18 0 -7 -7
-21 -13 -31 -13 -15 0 -16 3 -7 19 7 10 9 26 5 37 -11 25 -7 177 4 184 5 3 10
37 12 74 2 47 7 71 17 74 9 3 11 -1 7 -15 -4 -11 -3 -29 1 -39 6 -15 9 -12 14
16 l6 35 8 -42 c6 -35 10 -40 21 -29 20 21 7 86 -17 86 -11 0 -19 5 -19 10 0
6 -9 10 -19 10 -14 0 -18 5 -14 20 3 11 12 20 19 20 8 0 14 5 14 10 0 6 20 10
45 10 l45 0 0 -40 c0 -34 3 -40 21 -40 11 0 28 -7 36 -16 14 -13 14 -17 2 -25
-8 -5 -23 -9 -34 -10 -14 0 -11 -3 10 -10 17 -5 38 -6 48 -3 21 7 23 40 1 48
-12 5 -13 8 -2 20 11 13 15 13 30 -5 10 -12 24 -22 33 -23 8 -1 22 -11 30 -22
14 -19 15 -18 35 6 l20 25 0 -31 c0 -25 -5 -33 -22 -37 -13 -2 -31 -8 -40 -12
-15 -6 -18 -2 -18 19 0 19 -4 24 -15 20 -19 -8 -10 -43 14 -61 23 -17 75 -25
79 -13 5 14 79 13 84 -2 3 -8 15 -4 37 11 27 20 35 21 43 10 8 -11 9 -11 5 2
-3 9 4 42 15 73 16 43 18 60 10 68 -17 17 -23 6 -29 -56 l-6 -56 -38 0 -39 0
0 52 c0 40 3 49 12 40 7 -7 18 -12 25 -12 11 0 11 4 1 20 -10 16 -10 24 0 40
10 16 10 20 -1 20 -7 0 -18 -5 -25 -12 -9 -9 -12 -9 -12 0 0 7 5 12 10 12 6 0
10 9 10 19 0 11 -4 23 -10 26 -12 8 -13 45 -1 45 13 0 21 27 15 45 -4 10 -13
13 -25 10 -11 -4 -19 -2 -19 3 0 6 6 12 13 15 9 3 9 8 -2 21 -11 13 -11 20 -3
28 9 9 12 8 12 -6 0 -9 6 -24 14 -32 17 -16 46 -19 46 -4 0 6 -7 10 -15 10 -8
0 -15 9 -15 20 0 11 5 20 10 20 6 0 10 5 10 10 0 6 -30 11 -67 12 -49 1 -56 3
-25 5 56 5 54 23 -2 23 -49 0 -62 11 -48 37 10 17 92 27 92 11 0 -4 -18 -8
-40 -8 -22 0 -40 -4 -40 -10 0 -5 17 -10 37 -10 20 0 44 -7 54 -16 10 -9 22
-13 28 -10 15 10 45 76 38 83 -4 3 -9 -2 -13 -11 -6 -16 -44 -23 -44 -8 0 12
34 42 48 42 6 0 19 -12 28 -26 12 -18 19 -22 25 -13 6 10 11 10 23 0 14 -12
16 -10 16 9 0 13 7 28 15 34 8 6 19 30 23 54 7 45 25 59 30 26 6 -33 19 -37
50 -15 36 25 42 26 42 6 0 -9 9 -15 25 -15 14 0 25 -4 25 -10 0 -5 -11 -10
-25 -10 -14 0 -25 -5 -25 -11 0 -8 18 -10 61 -5 34 3 71 6 82 6 19 0 20 5 14
80 -5 74 -4 80 14 80 13 0 19 7 19 24 0 14 4 27 9 30 14 9 41 -4 41 -20 0 -19
4 -18 45 9 41 26 44 37 10 37 -14 0 -25 5 -25 11 0 7 10 9 25 5 23 -6 25 -3
25 24 0 27 -2 30 -25 24 -15 -4 -25 -2 -25 5 0 10 25 15 61 12 20 -2 32 90 22
179 -5 52 -4 60 11 60 12 0 16 -10 16 -40 0 -23 5 -40 11 -40 9 0 10 -54 4
-207 -4 -115 -7 -221 -7 -238 1 -16 2 -157 3 -312 1 -155 5 -281 8 -279 3 2 6
-165 6 -372 1 -439 7 -712 17 -712 4 0 7 329 7 732 1 567 -2 735 -12 747 -9
12 -9 13 1 7 17 -10 24 1638 7 1712 l-5 22 -3463 -1 c-1904 -1 -3446 -5 -3427
-8z m157 -8 c-15 -2 -25 -9 -22 -14 4 -5 -11 -8 -32 -8 -23 1 -30 3 -18 7 l20
5 -20 8 c-13 5 1 7 40 7 33 -1 48 -3 32 -5z m6731 -28 c-3 -3 -9 2 -12 12 -6
14 -5 15 5 6 7 -7 10 -15 7 -18z m-6880 1 c27 4 27 4 -2 -6 -32 -10 -50 -5
-39 13 4 7 8 8 10 0 2 -5 16 -9 31 -7z m119 -12 c-3 -3 -12 -4 -19 -1 -8 3 -5
6 6 6 11 1 17 -2 13 -5z m-150 -76 c-3 -8 -6 -5 -6 6 -1 11 2 17 5 13 3 -3 4
-12 1 -19z m923 -104 c0 -8 -19 -13 -24 -6 -3 5 1 9 9 9 8 0 15 -2 15 -3z
m-953 -126 c-2 -13 -4 -3 -4 22 0 25 2 35 4 23 2 -13 2 -33 0 -45z m600 20
c-3 -8 -6 -5 -6 6 -1 11 2 17 5 13 3 -3 4 -12 1 -19z m230 -40 c-3 -8 -6 -5
-6 6 -1 11 2 17 5 13 3 -3 4 -12 1 -19z m-426 -15 c13 -16 12 -17 -3 -4 -17
13 -22 21 -14 21 2 0 10 -8 17 -17z m306 -50 c-3 -10 -5 -2 -5 17 0 19 2 27 5
18 2 -10 2 -26 0 -35z m3039 3 c28 -28 34 -41 34 -78 0 -34 -6 -50 -23 -66
-23 -21 -25 -22 -56 -6 -24 12 -46 15 -81 10 -57 -8 -70 6 -70 69 0 68 40 104
119 105 36 0 49 -6 77 -34z m-3321 14 c-3 -5 -12 -10 -18 -10 -7 0 -6 4 3 10
19 12 23 12 15 0z m535 -25 c0 -12 -19 -12 -23 0 -4 9 -1 12 9 8 7 -3 14 -7
14 -8z m-927 -59 c3 -30 1 -43 -4 -35 -8 13 -13 97 -5 88 2 -2 6 -26 9 -53z
m595 3 c-3 -8 -7 -3 -11 10 -4 17 -3 21 5 13 5 -5 8 -16 6 -23z m93 0 c-9 -22
-10 -22 -10 -3 -1 11 2 24 6 27 12 12 14 0 4 -24z m-245 9 c5 -8 2 -9 -9 -5
-10 4 -17 1 -17 -5 0 -6 -3 -9 -6 -5 -7 7 4 27 16 27 5 0 12 -5 16 -12z m32
-29 c-3 -8 -7 -3 -11 10 -4 17 -3 21 5 13 5 -5 8 -16 6 -23z m-168 0 c0 -14
-17 -10 -23 5 -4 10 -1 13 9 9 7 -3 14 -9 14 -14z m-100 -34 c0 -5 -5 -3 -10
5 -5 8 -10 20 -10 25 0 6 5 3 10 -5 5 -8 10 -19 10 -25z m207 3 c-3 -7 -5 -2
-5 12 0 14 2 19 5 13 2 -7 2 -19 0 -25z m150 -3 c0 -8 -4 -12 -9 -9 -5 3 -6
10 -3 15 9 13 12 11 12 -6z m-72 -5 c3 -6 -1 -7 -9 -4 -18 7 -21 14 -7 14 6 0
13 -4 16 -10z m929 -36 c3 -8 2 -12 -4 -9 -6 3 -10 10 -10 16 0 14 7 11 14 -7z
m2239 -18 c14 -15 15 -174 1 -423 l-6 -103 -55 0 -56 0 6 68 c4 37 12 153 17
257 6 105 13 196 15 203 6 17 60 15 78 -2z m-3268 -24 c-6 -7 -34 11 -29 19 3
5 11 3 19 -4 7 -6 12 -13 10 -15z m-72 1 c-7 -2 -19 -2 -25 0 -7 3 -2 5 12 5
14 0 19 -2 13 -5z m3404 -65 c-2 -13 -4 -3 -4 22 0 25 2 35 4 23 2 -13 2 -33
0 -45z m-3322 22 c3 -6 -1 -7 -9 -4 -18 7 -21 14 -7 14 6 0 13 -4 16 -10z
m3112 -242 c-3 -8 -6 -5 -6 6 -1 11 2 17 5 13 3 -3 4 -12 1 -19z m3343 13 c0
-12 -20 -25 -27 -18 -7 7 6 27 18 27 5 0 9 -4 9 -9z m-6690 -31 c0 -5 -4 -10
-10 -10 -5 0 -10 5 -10 10 0 6 5 10 10 10 6 0 10 -4 10 -10z m3547 -82 c-2
-13 -4 -5 -4 17 -1 22 1 32 4 23 2 -10 2 -28 0 -40z m-3603 17 c3 -9 0 -15 -9
-15 -8 0 -15 7 -15 15 0 8 4 15 9 15 5 0 11 -7 15 -15z m6686 -9 c0 -3 -4 -8
-10 -11 -5 -3 -10 -1 -10 4 0 6 5 11 10 11 6 0 10 -2 10 -4z m-6610 -26 c0 -5
-4 -10 -10 -10 -5 0 -10 5 -10 10 0 6 5 10 10 10 6 0 10 -4 10 -10z m3317 -32
c-3 -7 -5 -2 -5 12 0 14 2 19 5 13 2 -7 2 -19 0 -25z m3303 -39 c0 -19 -11
-25 -23 -12 -4 3 -2 12 4 20 9 9 8 13 0 13 -6 0 -11 5 -11 11 0 8 5 8 15 -1 8
-7 15 -21 15 -31z m-3313 5 c-3 -3 -12 -4 -19 -1 -8 3 -5 6 6 6 11 1 17 -2 13
-5z m-39 -76 c-31 -30 -44 -38 -44 -26 0 9 3 16 6 15 11 -3 70 51 71 65 0 9 2
9 5 1 3 -6 -14 -31 -38 -55z m236 -8 c36 -17 96 -84 85 -94 -2 -2 -80 -1 -174
3 l-170 6 40 44 c22 24 49 47 60 51 38 16 117 11 159 -10z m3116 9 c0 -6 -6
-17 -14 -25 -15 -15 -36 -19 -36 -7 0 8 33 42 43 42 4 1 7 -4 7 -10z m-3022
-24 c-3 -3 -9 2 -12 12 -6 14 -5 15 5 6 7 -7 10 -15 7 -18z m2802 -25 c0 -10
-4 -22 -10 -25 -6 -4 -10 7 -10 25 0 18 4 29 10 25 6 -3 10 -15 10 -25z m155
-10 c3 -5 1 -10 -4 -10 -6 0 -11 5 -11 10 0 6 2 10 4 10 3 0 8 -4 11 -10z
m-342 -17 c-7 -2 -19 -2 -25 0 -7 3 -2 5 12 5 14 0 19 -2 13 -5z m-3066 -29
c-3 -3 -12 -4 -19 -1 -8 3 -5 6 6 6 11 1 17 -2 13 -5z m3240 -26 c-3 -8 -6 -5
-6 6 -1 11 2 17 5 13 3 -3 4 -12 1 -19z m-2832 -19 c244 -30 411 -148 514
-363 77 -160 112 -276 118 -381 5 -80 -10 -332 -20 -341 -2 -2 -66 8 -143 22
-76 14 -164 29 -194 34 -30 5 -122 20 -205 35 -204 35 -402 43 -515 21 -196
-40 -358 -161 -421 -316 -34 -85 -39 -274 -10 -366 49 -151 113 -235 202 -267
27 -9 115 -20 229 -27 374 -23 679 -85 843 -173 l43 -22 -11 -140 c-12 -162
-28 -202 -85 -222 -39 -13 -159 -17 -176 -5 -8 4 -10 26 -7 60 l6 52 51 -6
c117 -15 -26 42 -176 70 -308 57 -613 76 -763 47 -159 -30 -275 -115 -338
-249 -29 -60 -32 -77 -32 -157 0 -102 10 -129 72 -189 83 -80 174 -107 498
-146 55 -6 150 -20 210 -30 61 -10 162 -24 225 -30 63 -7 125 -19 137 -26 44
-28 71 -118 59 -199 -5 -33 -11 -42 -24 -39 -9 2 -89 10 -177 19 -88 8 -203
19 -255 25 -52 5 -149 14 -215 20 -66 5 -181 16 -255 24 -74 8 -164 18 -200
21 -132 12 -206 27 -217 44 -7 10 -7 38 -2 76 4 33 13 150 19 260 17 319 53
731 80 915 5 36 12 110 15 165 5 90 26 279 56 515 11 88 71 479 90 585 28 160
90 308 172 408 112 136 239 225 367 257 115 28 297 36 435 19z m2618 4 c-7 -2
-19 -2 -25 0 -7 3 -2 5 12 5 14 0 19 -2 13 -5z m47 -24 c0 -18 -2 -19 -15 -9
-8 7 -15 16 -15 21 0 5 7 9 15 9 9 0 15 -9 15 -21z m77 -11 c-3 -7 -5 -2 -5
12 0 14 2 19 5 13 2 -7 2 -19 0 -25z m63 22 c0 -5 -4 -10 -10 -10 -5 0 -10 5
-10 10 0 6 5 10 10 10 6 0 10 -4 10 -10z m-2480 -46 c0 -2 -9 0 -20 6 -11 6
-20 13 -20 16 0 2 9 0 20 -6 11 -6 20 -13 20 -16z m-980 -4 c-14 -11 -29 -20
-35 -20 -5 0 4 9 20 20 38 25 48 25 15 0z m3400 -5 c0 -8 -4 -15 -10 -15 -5 0
-7 7 -4 15 4 8 8 15 10 15 2 0 4 -7 4 -15z m60 -5 c0 -5 -4 -10 -10 -10 -5 0
-10 5 -10 10 0 6 5 10 10 10 6 0 10 -4 10 -10z m-3535 -20 c4 -6 11 -7 17 -4
7 4 8 2 4 -5 -6 -9 -11 -9 -21 -1 -8 7 -20 8 -26 4 -8 -4 -9 -3 -5 4 9 15 23
15 31 2z m1106 -7 c13 -16 12 -17 -3 -4 -10 7 -18 15 -18 17 0 8 8 3 21 -13z
m34 -11 c0 -13 54 -60 60 -53 4 3 5 -1 3 -9 -2 -8 3 -14 10 -12 8 1 11 -2 7
-8 -4 -7 -24 5 -50 32 -24 23 -42 44 -40 47 3 2 -1 11 -7 20 -10 14 -10 14 2
3 8 -7 15 -16 15 -20z m2269 2 c17 -24 17 -27 2 -42 -15 -15 -16 -14 -16 10 0
31 -3 33 -47 43 -27 5 -33 3 -33 -10 0 -13 -4 -14 -20 -5 -35 19 -21 30 38 30
50 -1 59 -4 76 -26z m186 22 c0 -3 -4 -8 -10 -11 -5 -3 -10 -1 -10 4 0 6 5 11
10 11 6 0 10 -2 10 -4z m30 -67 c0 -5 -7 -9 -15 -9 -15 0 -20 12 -9 23 8 8 24
-1 24 -14z m-150 1 c0 -5 -7 -10 -16 -10 -8 0 -12 5 -9 10 3 6 10 10 16 10 5
0 9 -4 9 -10z m-3585 -30 c-4 -6 -1 -18 7 -27 9 -12 9 -15 1 -9 -8 4 -13 2
-13 -7 0 -8 -7 -20 -15 -27 -13 -11 -14 -9 -1 15 8 16 13 32 10 37 -5 8 3 28
12 28 3 0 2 -5 -1 -10z m3426 -67 c-20 -15 -31 -16 -31 -3 0 6 7 10 15 10 9 0
15 10 16 28 l1 27 7 -25 c5 -17 2 -29 -8 -37z m-87 21 c4 -10 -2 -14 -19 -14
-23 0 -33 18 -19 33 9 9 32 -3 38 -19z m-5434 -54 c0 -33 -3 -40 -20 -40 -17
0 -20 7 -20 40 0 33 3 40 20 40 17 0 20 -7 20 -40z m3480 13 c0 9 4 19 10 22
5 3 7 0 4 -9 -3 -8 0 -25 6 -38 10 -21 10 -21 -3 -5 -8 10 -17 13 -18 8 -2 -6
-12 4 -22 22 l-17 32 20 -24 c15 -17 20 -19 20 -8z m-3360 -18 c0 -8 -9 -15
-20 -15 -11 0 -20 7 -20 15 0 8 9 15 20 15 11 0 20 -7 20 -15z m170 -14 c0
-12 -20 -25 -27 -18 -7 7 6 27 18 27 5 0 9 -4 9 -9z m44 -6 c3 -8 1 -15 -4
-15 -6 0 -10 7 -10 15 0 8 2 15 4 15 2 0 6 -7 10 -15z m-174 -5 c0 -5 -4 -10
-10 -10 -5 0 -10 5 -10 10 0 6 5 10 10 10 6 0 10 -4 10 -10z m-100 -50 c0 -22
-4 -40 -10 -40 -5 0 -10 18 -10 40 0 22 5 40 10 40 6 0 10 -18 10 -40z m4519
18 c0 -13 -4 -32 -9 -43 -7 -15 -9 -10 -9 23 -1 23 4 42 9 42 6 0 10 -10 9
-22z m41 5 c0 -10 3 -28 6 -40 5 -17 2 -23 -10 -23 -12 0 -16 10 -16 40 0 22
5 40 10 40 6 0 10 -8 10 -17z m615 -14 c4 -11 4 -23 0 -27 -7 -7 -25 17 -25
36 0 20 18 14 25 -9z m-1683 -63 c4 3 6 -2 6 -12 -1 -11 2 -30 6 -44 4 -14 -9
8 -29 49 -39 82 -47 110 -12 43 13 -24 26 -40 29 -36z m-1550 42 c-7 -7 -12
-8 -12 -2 0 14 12 26 19 19 2 -3 -1 -11 -7 -17z m3198 12 c0 -5 -18 -10 -40
-10 -22 0 -40 5 -40 10 0 6 18 10 40 10 22 0 40 -4 40 -10z m-5057 -17 c-13
-2 -33 -2 -45 0 -13 2 -3 4 22 4 25 0 35 -2 23 -4z m-23 -44 c0 -17 5 -20 24
-17 19 4 25 0 29 -19 4 -20 0 -23 -24 -23 -22 0 -29 5 -29 20 0 13 -7 20 -20
20 -13 0 -20 7 -20 20 0 13 7 20 20 20 14 0 20 -7 20 -21z m5060 -21 c0 -16
-3 -19 -11 -11 -6 6 -8 16 -5 22 11 17 16 13 16 -11z m111 -12 c-7 -8 -9 -21
-5 -28 5 -9 4 -10 -4 -3 -6 6 -8 23 -5 38 4 20 9 25 16 18 7 -7 6 -15 -2 -25z
m-651 -6 c0 -11 -7 -20 -15 -20 -18 0 -19 12 -3 28 16 16 18 15 18 -8z m-2685
-17 c-5 -10 -14 -38 -21 -63 -7 -26 -13 -35 -13 -23 -1 23 27 103 36 103 3 0
2 -8 -2 -17z m1635 -58 c0 -5 -5 -3 -10 5 -5 8 -10 20 -10 25 0 6 5 3 10 -5 5
-8 10 -19 10 -25z m1770 6 c0 -11 -39 -25 -47 -18 -3 3 -2 10 2 16 8 13 45 15
45 2z m-1742 -116 c0 -11 -6 3 -14 30 -7 28 -13 55 -13 60 2 17 27 -69 27 -90z
m1029 33 c-3 -7 -5 -2 -5 12 0 14 2 19 5 13 2 -7 2 -19 0 -25z m-2736 -7 c-6
-4 -9 -16 -6 -27 6 -17 5 -17 -5 -2 -8 13 -7 23 2 38 7 11 15 15 17 9 2 -6 -2
-15 -8 -18z m-513 -8 c2 -8 -5 -13 -17 -13 -12 0 -21 6 -21 16 0 18 31 15 38
-3z m122 -43 c0 -27 -4 -50 -10 -50 -5 0 -10 -18 -10 -40 0 -33 -3 -40 -20
-40 -17 0 -20 7 -20 40 0 22 -4 40 -10 40 -5 0 -10 -4 -10 -10 0 -15 -36 -12
-50 5 -9 11 -7 21 11 47 39 54 43 57 82 58 l37 0 0 -50z m3024 -12 c6 -31 4
-38 -9 -38 -16 0 -20 34 -9 65 8 20 10 18 18 -27z m-3764 -13 c0 -14 5 -25 10
-25 6 0 10 -9 10 -20 0 -17 -7 -20 -40 -20 -33 0 -40 3 -40 20 0 11 5 20 10
20 6 0 10 11 10 25 0 18 5 25 20 25 15 0 20 -7 20 -25z m1077 3 c-3 -8 -6 -5
-6 6 -1 11 2 17 5 13 3 -3 4 -12 1 -19z m40 -15 c-3 -10 -5 -4 -5 12 0 17 2
24 5 18 2 -7 2 -21 0 -30z m1730 -96 c-2 -23 -3 -1 -3 48 0 50 1 68 3 42 2
-26 2 -67 0 -90z m1016 84 c9 -16 17 -41 17 -56 0 -22 4 -26 20 -22 32 8 25
-29 -10 -50 -30 -17 -39 -33 -20 -33 6 0 10 -18 10 -40 0 -22 -4 -40 -10 -40
-5 0 -10 5 -10 10 0 6 -17 10 -38 10 -32 0 -41 -5 -51 -27 -9 -20 -15 -23 -24
-14 -9 9 -9 14 2 20 11 7 9 15 -10 42 -13 19 -27 36 -31 37 -4 2 -8 10 -8 18
0 8 -7 14 -15 14 -21 0 -19 37 3 44 9 3 -1 3 -23 0 -22 -3 -43 -11 -47 -17 -5
-8 -8 -6 -8 6 0 12 8 17 25 17 14 0 25 5 25 10 0 6 8 10 17 10 13 0 14 3 5 12
-19 19 -14 27 21 32 17 3 48 8 68 11 25 4 38 12 42 25 7 26 28 18 50 -19z
m554 7 c-3 -8 -6 -5 -6 6 -1 11 2 17 5 13 3 -3 4 -12 1 -19z m-3317 -12 c0 -3
-4 -8 -10 -11 -5 -3 -10 -1 -10 4 0 6 5 11 10 11 6 0 10 -2 10 -4z m7 -48 c-3
-7 -5 -2 -5 12 0 14 2 19 5 13 2 -7 2 -19 0 -25z m2818 12 c3 -5 -1 -10 -10
-10 -9 0 -13 5 -10 10 3 6 8 10 10 10 2 0 7 -4 10 -10z m-3325 -10 c0 -5 -4
-10 -10 -10 -5 0 -10 5 -10 10 0 6 5 10 10 10 6 0 10 -4 10 -10z m477 -52 c-3
-8 -6 -5 -6 6 -1 11 2 17 5 13 3 -3 4 -12 1 -19z m20 0 c-3 -8 -6 -5 -6 6 -1
11 2 17 5 13 3 -3 4 -12 1 -19z m1790 -10 c-3 -7 -5 -2 -5 12 0 14 2 19 5 13
2 -7 2 -19 0 -25z m-1806 -69 c-6 -30 -9 -35 -10 -17 -1 14 -4 35 -7 45 -5 15
-4 15 5 3 9 -13 11 -12 11 4 0 11 2 17 5 15 2 -3 1 -25 -4 -50z m1756 -71 c-2
-24 -4 -7 -4 37 0 44 2 63 4 43 2 -21 2 -57 0 -80z m1123 52 c0 -33 -3 -40
-20 -40 -17 0 -20 7 -20 40 0 33 3 40 20 40 17 0 20 -7 20 -40z m66 24 c-3 -9
-6 -27 -6 -40 0 -13 -4 -24 -10 -24 -5 0 -10 18 -10 40 0 30 4 40 16 40 11 0
14 -5 10 -16z m-2981 -3 c3 -5 1 -12 -5 -16 -5 -3 -10 1 -10 9 0 18 6 21 15 7z
m-1305 -21 c0 -13 -7 -20 -20 -20 -13 0 -20 7 -20 20 0 13 7 20 20 20 13 0 20
-7 20 -20z m4330 -30 c0 -5 7 -10 15 -10 8 0 15 -7 15 -15 0 -21 -12 -19 -33
5 -20 23 -21 30 -7 30 6 0 10 -4 10 -10z m-4050 -14 c0 -3 -4 -8 -10 -11 -5
-3 -10 -1 -10 4 0 6 5 11 10 11 6 0 10 -2 10 -4z m3825 -6 c-3 -5 -15 -10 -25
-10 -10 0 -22 5 -25 10 -4 6 7 10 25 10 18 0 29 -4 25 -10z m-2778 -32 c-3 -7
-5 -2 -5 12 0 14 2 19 5 13 2 -7 2 -19 0 -25z m2998 0 c48 -32 45 -48 -7 -47
-24 1 -35 3 -25 6 21 5 22 22 2 29 -14 6 -22 34 -10 34 3 0 21 -10 40 -22z
m-205 -18 c0 -18 -2 -19 -20 -8 -16 10 -24 10 -40 0 -27 -16 -30 -15 -30 8 0
17 7 20 45 20 38 0 45 -3 45 -20z m-3703 -12 c-3 -8 -6 -5 -6 6 -1 11 2 17 5
13 3 -3 4 -12 1 -19z m2050 -3 c171 -29 357 -64 563 -105 360 -72 371 -76 461
-158 63 -58 84 -106 99 -227 12 -97 1 -205 -28 -261 -22 -41 -77 -102 -127
-139 -35 -26 -224 -90 -423 -144 l-138 -37 -32 19 c-50 29 -213 85 -315 107
-151 33 -422 68 -582 75 -187 8 -237 27 -290 109 -42 66 -82 178 -90 252 -15
143 42 304 137 388 63 55 178 113 261 131 107 23 334 19 504 -10z m620 -7 c-3
-8 -6 -5 -6 6 -1 11 2 17 5 13 3 -3 4 -12 1 -19z m908 12 c3 -5 1 -10 -4 -10
-6 0 -11 5 -11 10 0 6 2 10 4 10 3 0 8 -4 11 -10z m-2678 -32 c-3 -8 -6 -5 -6
6 -1 11 2 17 5 13 3 -3 4 -12 1 -19z m-967 -49 c0 -5 -4 -9 -10 -9 -5 0 -10 7
-10 16 0 8 5 12 10 9 6 -3 10 -10 10 -16z m147 -1 c-3 -8 -6 -5 -6 6 -1 11 2
17 5 13 3 -3 4 -12 1 -19z m810 0 c-3 -8 -6 -5 -6 6 -1 11 2 17 5 13 3 -3 4
-12 1 -19z m1806 15 c-7 -2 -19 -2 -25 0 -7 3 -2 5 12 5 14 0 19 -2 13 -5z
m347 -57 c0 -2 -7 -7 -16 -10 -8 -3 -12 -2 -9 4 6 10 25 14 25 6z m-24 -33
c-6 -6 -36 9 -36 18 0 5 9 4 20 -3 10 -7 18 -14 16 -15z m-2139 -45 c-2 -13
-4 -5 -4 17 -1 22 1 32 4 23 2 -10 2 -28 0 -40z m-757 -8 c0 -22 -4 -40 -10
-40 -5 0 -10 18 -10 40 0 22 5 40 10 40 6 0 10 -18 10 -40z m3002 27 c-6 -7
-10 -20 -8 -29 3 -24 37 -59 49 -51 6 3 7 1 3 -6 -4 -6 -2 -19 5 -27 6 -8 9
-17 6 -20 -3 -3 -11 5 -17 18 -7 12 -25 37 -41 53 -27 29 -28 32 -13 53 8 12
18 22 21 22 3 0 1 -6 -5 -13z m868 -47 c0 -5 -11 -10 -25 -10 -14 0 -25 5 -25
10 0 6 11 10 25 10 14 0 25 -4 25 -10z m-3123 -57 c-3 -10 -5 -4 -5 12 0 17 2
24 5 18 2 -7 2 -21 0 -30z m-207 -64 c0 -18 -2 -19 -15 -9 -8 7 -15 16 -15 21
0 5 7 9 15 9 9 0 15 -9 15 -21z m195 -29 c-4 -23 -9 -39 -11 -37 -3 2 -2 23 2
46 4 23 9 40 11 37 3 -3 2 -23 -2 -46z m2979 35 c-4 -8 -10 -12 -15 -9 -14 8
-10 24 6 24 9 0 12 -6 9 -15z m-624 -40 c0 -5 -5 -3 -10 5 -5 8 -10 20 -10 25
0 6 5 3 10 -5 5 -8 10 -19 10 -25z m274 6 c3 -5 -1 -11 -9 -15 -9 -3 -15 0
-15 9 0 16 16 20 24 6z m-254 -75 c0 -26 -6 -18 -14 19 -5 22 -4 26 4 15 5 -8
10 -24 10 -34z m-2396 -81 l-13 -90 5 75 c5 70 12 116 18 108 2 -2 -3 -43 -10
-93z m2403 -52 c-2 -21 -4 -6 -4 32 0 39 2 55 4 38 2 -18 2 -50 0 -70z m-2417
-78 c0 -10 -9 -15 -27 -14 -24 2 -25 2 -5 6 12 2 20 9 17 14 -4 5 -1 9 4 9 6
0 11 -7 11 -15z m-69 -8 c-6 -8 -7 -18 -3 -22 4 -5 3 -6 -3 -3 -5 3 -18 8 -28
11 -25 9 -12 27 20 27 20 0 23 -3 14 -13z m2476 -27 c-6 -16 -13 -28 -15 -26
-6 6 10 56 18 56 5 0 3 -13 -3 -30z m-2407 0 c0 -5 -12 -10 -27 -9 l-28 1 25
8 c14 4 26 8 28 9 1 1 2 -3 2 -9z m-105 -24 c-27 -7 -61 -16 -74 -20 -16 -6
-21 -5 -17 3 4 6 16 11 27 11 11 0 18 3 16 8 -3 4 18 8 47 9 l51 1 -50 -12z
m-117 -17 c-6 -4 -6 -9 -2 -11 5 -3 2 -3 -6 -1 -8 3 -28 6 -45 9 -29 4 -29 4
5 -10 l35 -14 -30 -7 c-16 -4 -44 -13 -62 -21 -17 -8 -35 -14 -40 -14 -12 1
27 22 67 37 27 9 30 12 13 13 -13 0 -23 4 -23 10 0 5 -8 7 -17 4 -15 -5 -16
-4 -3 5 8 6 38 9 67 8 28 -1 46 -5 41 -8z m2612 -18 c-13 -26 -13 -34 3 -25 6
4 8 3 4 -1 -4 -5 -14 -10 -21 -11 -11 -1 -11 4 -3 27 6 16 15 29 20 29 4 0 3
-9 -3 -19z m-2725 -1 l20 -9 -20 0 c-11 0 -27 4 -35 9 -13 9 -13 10 0 9 8 0
24 -4 35 -9z m-322 -47 c-13 -2 -33 -2 -45 0 -13 2 -3 4 22 4 25 0 35 -2 23
-4z m203 -16 c3 -2 -4 -7 -16 -10 -11 -3 -18 -1 -14 4 7 12 -17 11 -36 -1 -12
-8 -12 -10 5 -10 18 0 18 -1 -4 -16 -17 -13 -25 -14 -34 -5 -9 9 -8 11 6 6 9
-4 17 -3 17 3 0 5 -7 13 -16 16 -29 11 -4 24 42 21 25 -1 47 -5 50 -8z m44 -7
c-19 -11 -39 -19 -45 -19 -5 0 6 8 25 19 19 11 40 19 45 19 6 0 -6 -8 -25 -19z
m2751 -8 c-18 -26 -18 -29 -3 -40 14 -10 13 -11 -6 -2 -23 11 -22 20 6 53 23
27 26 20 3 -11z m-3026 -12 c0 -16 -6 -26 -17 -28 -14 -3 -18 3 -18 28 0 25 4
31 18 28 11 -2 17 -12 17 -28z m3075 -15 c14 -19 14 -19 -2 -6 -14 11 -18 11
-18 1 0 -8 -2 -11 -5 -8 -3 3 -3 13 1 22 4 9 7 16 8 14 1 -2 8 -12 16 -23z
m-2860 10 c0 -6 -56 -35 -67 -35 -4 0 6 9 22 20 29 19 45 25 45 15z m2766 -34
c-3 -5 1 -11 9 -15 20 -7 19 -29 -3 -49 -17 -15 -18 -15 -19 4 -1 14 3 19 13
15 8 -3 14 1 14 9 0 8 -9 13 -20 12 -11 -1 -20 -5 -20 -9 0 -4 -3 -7 -7 -6 -5
2 -18 -5 -31 -14 -17 -11 -20 -17 -10 -21 9 -4 8 -6 -4 -6 -9 -1 -20 4 -23 9
-3 6 -2 10 3 10 5 0 29 16 53 34 47 37 53 41 45 27z m-2958 -18 c-6 -7 -16
-13 -24 -13 -7 0 -17 -8 -23 -17 -9 -16 -10 -15 -8 5 1 12 7 22 15 22 7 0 11
4 8 9 -3 5 5 8 18 7 18 -1 22 -4 14 -13z m45 -17 c-3 -6 -21 -24 -41 -41 l-37
-29 29 32 c29 31 22 47 -8 17 -8 -8 -17 -11 -20 -7 -7 12 39 36 53 28 7 -5 11
2 11 16 0 17 2 20 9 9 5 -8 7 -19 4 -25z m67 28 c0 -2 -9 -8 -19 -14 -14 -7
-22 -7 -27 2 -4 7 -3 8 4 4 7 -4 12 -3 12 2 0 5 7 9 15 9 8 0 15 -2 15 -3z
m2814 -65 c-3 -5 -10 -7 -15 -3 -5 3 -7 10 -3 15 3 5 10 7 15 3 5 -3 7 -10 3
-15z m-138 -29 c-22 -11 -46 -20 -53 -20 -8 0 -12 -4 -9 -9 4 -5 -4 -6 -16 -3
-21 5 -20 7 12 17 19 6 46 16 60 23 43 19 47 12 6 -8z m-2883 -27 c-3 -7 -9
-13 -13 -13 -4 0 -10 6 -13 13 -3 7 3 13 13 13 10 0 16 -6 13 -13z m2914 1
c-3 -3 -12 -4 -19 -1 -8 3 -5 6 6 6 11 1 17 -2 13 -5z m-127 -14 c13 -8 13
-10 -2 -10 -9 0 -20 5 -23 10 -8 13 5 13 25 0z m83 3 c-7 -2 -19 -2 -25 0 -7
3 -2 5 12 5 14 0 19 -2 13 -5z m-161 -20 c-10 -4 -10 -8 0 -21 12 -15 11 -16
-4 -3 -19 14 -15 32 5 30 8 0 8 -2 -1 -6z m128 -3 c0 -5 -7 -10 -15 -10 -8 0
-15 5 -15 10 0 6 7 10 15 10 8 0 15 -4 15 -10z m-92 -117 c212 -165 400 -358
438 -450 15 -35 15 -38 -4 -53 -32 -26 -76 -13 -132 37 -73 66 -61 30 15 -44
57 -55 74 -81 134 -206 90 -184 119 -257 133 -333 13 -70 6 -109 -22 -124 -37
-20 -66 7 -115 104 -25 50 -45 83 -45 75 0 -24 38 -129 56 -158 11 -16 18 -56
22 -127 10 -219 -67 -483 -175 -596 -29 -31 -105 -63 -126 -55 -12 5 -11 15 5
62 25 76 17 80 -16 8 -36 -76 -85 -141 -189 -242 -125 -123 -198 -168 -236
-144 -27 17 -23 47 13 109 54 93 53 117 -1 34 -58 -88 -155 -182 -273 -264
-144 -100 -248 -196 -343 -314 -36 -45 -69 -83 -73 -83 -4 0 -24 47 -45 106
-20 58 -46 124 -56 148 -11 23 -35 77 -53 119 l-33 77 29 48 c17 26 65 92 106
145 188 240 336 504 388 691 24 85 26 199 5 276 -18 71 -40 94 -30 33 7 -41 6
-43 -14 -40 -20 3 -22 10 -24 100 -3 91 -5 100 -35 141 l-31 44 9 79 c19 164
40 331 48 379 l7 50 60 2 c128 5 165 13 199 44 41 36 52 74 66 244 6 71 12
130 13 131 1 0 43 12 92 26 50 14 91 26 93 27 2 1 65 -47 140 -106z m66 101
c24 -9 19 -22 -7 -20 -13 0 -24 7 -24 14 0 13 8 15 31 6z m-62 -12 c-8 -6 -3
-15 20 -32 18 -14 37 -24 41 -22 5 1 6 -2 2 -8 -3 -5 -3 -10 2 -10 10 0 79
-60 69 -60 -4 0 -40 28 -81 62 -68 57 -82 78 -52 78 9 0 9 -2 -1 -8z m118 -67
c-7 -9 -15 -13 -17 -11 -7 7 7 26 19 26 6 0 6 -6 -2 -15z m62 -32 c2 -23 0
-43 -4 -43 -7 0 -13 33 -9 54 1 4 -3 14 -8 20 -8 9 -7 13 3 13 10 0 15 -15 18
-44z m60 -4 c3 -53 -10 -77 -30 -57 -9 9 -12 7 -12 -11 0 -12 4 -20 9 -17 5 3
12 -1 15 -10 4 -10 2 -13 -7 -8 -32 19 -37 26 -26 46 8 15 14 17 24 8 8 -7 15
-7 19 -1 4 5 2 12 -4 16 -12 8 -13 85 -1 85 5 0 11 -23 13 -51z m-82 23 c0 -4
-9 -8 -19 -8 -11 0 -17 4 -15 8 3 4 12 8 20 8 8 0 14 -4 14 -8z m250 -47 c0
-14 -4 -25 -9 -25 -12 0 -23 29 -15 41 10 18 24 9 24 -16z m-1672 -80 c2 -2 0
-35 -4 -74 l-7 -71 -66 0 c-36 0 -103 -3 -148 -7 l-83 -6 0 34 c0 74 11 109
37 115 70 18 256 24 271 9z m241 -17 l93 -11 -6 -36 c-3 -20 -6 -49 -6 -66 -1
-57 -4 -58 -146 -41 -72 9 -135 16 -142 16 -13 0 -17 96 -6 138 7 26 -8 26
213 0z m1343 -15 c-6 -3 -9 -10 -5 -16 4 -7 -1 -6 -10 2 -14 11 -15 17 -6 28
9 10 15 11 23 2 8 -8 8 -13 -2 -16z m-3362 13 c0 -3 -4 -8 -10 -11 -5 -3 -10
-1 -10 4 0 6 5 11 10 11 6 0 10 -2 10 -4z m1450 -71 c0 -36 -3 -65 -7 -66 -5
0 -50 -6 -101 -13 -51 -6 -95 -9 -97 -5 -13 20 157 148 198 149 4 0 7 -29 7
-65z m792 39 c51 -8 97 -19 101 -24 11 -10 -3 -170 -15 -170 -5 0 -54 12 -109
27 -97 26 -100 27 -95 52 3 14 6 46 7 71 2 44 6 60 15 60 2 0 46 -7 96 -16z
m1068 6 c0 -5 -2 -10 -4 -10 -3 0 -8 5 -11 10 -3 6 -1 10 4 10 6 0 11 -4 11
-10z m74 -61 c-3 -5 0 -18 7 -27 10 -12 7 -11 -9 3 -13 11 -19 21 -13 23 6 2
8 9 5 14 -4 7 -2 8 5 4 6 -4 9 -12 5 -17z m61 -28 c-1 -14 -9 -25 -18 -27 -15
-2 -15 0 -1 21 8 12 12 31 8 41 -4 15 -3 16 4 4 5 -8 9 -26 7 -39z m-25 9 c0
-5 -2 -10 -4 -10 -3 0 -8 5 -11 10 -3 6 -1 10 4 10 6 0 11 -4 11 -10z m110
-46 c0 -8 -19 -13 -24 -6 -3 5 1 9 9 9 8 0 15 -2 15 -3z m1369 -4 c46 -13 109
-76 121 -120 9 -36 2 -89 -18 -125 -33 -62 -108 -101 -253 -130 -73 -15 -81
-15 -114 1 -51 24 -92 79 -106 140 -11 47 -10 56 10 97 48 99 239 172 360 137z
m-3133 -42 c-3 -24 -8 -75 -12 -114 -3 -40 -9 -76 -13 -82 -4 -7 -59 -12 -146
-12 l-140 -2 2 69 c2 37 6 91 9 120 6 62 0 60 178 62 l128 1 -6 -42z m292 7
c20 -5 31 -13 28 -20 -2 -7 -7 -34 -11 -61 -3 -27 -11 -77 -17 -112 l-10 -62
-36 6 c-19 4 -81 12 -136 18 -99 11 -101 12 -100 36 2 47 16 205 19 216 3 10
187 -5 263 -21z m1442 20 c7 -8 15 -13 19 -11 4 3 7 -3 8 -13 1 -10 -6 -17
-18 -18 -11 -1 -17 3 -13 8 3 6 -2 19 -12 30 -9 10 -12 19 -7 19 6 0 16 -7 23
-15z m-2063 -112 c-4 -64 -10 -120 -15 -125 -5 -5 -56 -14 -113 -19 -57 -5
-109 -11 -116 -14 -30 -10 -31 102 -2 180 15 40 28 59 46 66 24 9 129 25 182
28 l24 1 -6 -117z m823 50 c30 -8 59 -19 64 -23 7 -7 1 -70 -20 -221 l-5 -37
-47 15 c-26 8 -75 22 -109 30 -35 8 -63 19 -63 25 0 17 31 212 36 226 5 16 52
11 144 -15z m2300 22 c0 -3 -11 -22 -24 -43 -45 -68 -43 -152 7 -227 23 -35
94 -85 121 -85 27 0 15 -32 -17 -43 -25 -8 -34 -2 -121 76 -54 49 -110 90
-131 97 l-37 12 6 55 c12 105 65 163 147 163 27 0 49 -2 49 -5z m-1020 -133
c0 -21 -7 -48 -16 -60 -11 -15 -12 -22 -3 -22 7 0 10 -2 7 -5 -3 -3 -12 -3
-21 1 -13 5 -13 8 5 26 15 15 19 30 16 63 -1 24 0 41 5 38 4 -2 7 -21 7 -41z
m17 -34 c-3 -7 -5 -2 -5 12 0 14 2 19 5 13 2 -7 2 -19 0 -25z m773 -33 c0 -8
-7 -15 -16 -15 -14 0 -14 3 -4 15 7 8 14 15 16 15 2 0 4 -7 4 -15z m-2910 -42
c-1 -29 -18 -145 -23 -150 -3 -2 -33 9 -68 25 -58 26 -129 88 -129 111 0 5 39
12 88 16 48 3 94 8 102 9 8 2 18 4 23 5 4 0 7 -7 7 -16z m316 -20 c-3 -21 -8
-66 -12 -101 -4 -43 -11 -65 -21 -69 -19 -7 -224 14 -256 26 -23 9 -23 11 -15
83 5 40 11 79 13 86 3 9 42 12 151 12 l146 0 -6 -37z m1785 21 c2 2 5 -7 5
-20 1 -14 1 -24 0 -22 -33 52 -38 62 -24 51 8 -7 17 -11 19 -9z m-1590 -5 c47
-6 92 -15 99 -19 11 -7 11 -28 1 -112 -7 -56 -14 -104 -14 -105 -2 -2 -271 38
-273 41 -2 2 16 160 21 184 6 26 32 28 166 11z m2489 -27 c46 -25 46 -34 1
-53 -90 -38 -139 -182 -96 -286 8 -19 15 -37 15 -39 0 -12 -62 -1 -100 19
-116 59 -124 266 -12 345 50 36 138 42 192 14z m-905 -22 c9 -16 13 -30 11
-30 -3 0 -12 14 -21 30 -9 17 -13 30 -11 30 3 0 12 -13 21 -30z m-1315 -5 c51
-14 95 -27 97 -28 1 -2 -3 -44 -9 -95 -11 -90 -12 -92 -37 -91 -60 2 -206 25
-205 32 1 4 8 52 15 107 10 79 16 100 28 100 9 0 59 -11 111 -25z m1352 -53
c-3 -10 -1 -13 6 -8 16 9 25 -11 13 -31 -8 -16 -11 -15 -21 11 -6 16 -13 32
-15 36 -2 4 2 7 9 7 8 0 12 -7 8 -15z m53 -14 c-1 -16 -7 -34 -13 -40 -14 -14
-16 -32 -3 -24 5 3 11 0 14 -7 3 -8 -1 -14 -9 -14 -21 0 -25 26 -8 53 15 23
15 26 -1 44 -16 18 -16 19 2 17 15 -1 19 -8 18 -29z m926 -1 c113 -85 130
-235 38 -325 -45 -44 -87 -50 -140 -21 -61 34 -94 102 -93 189 1 75 17 113 69
159 45 39 73 39 126 -2z m246 2 c-24 -14 -57 -20 -57 -9 0 8 26 16 60 18 11 1
11 -1 -3 -9z m174 -42 c63 -42 84 -120 58 -224 -14 -53 -71 -118 -112 -128
-38 -10 -43 -1 -24 39 9 19 21 61 28 94 11 53 10 65 -6 107 -10 27 -33 65 -51
85 -19 20 -31 40 -27 44 16 16 101 5 134 -17z m-796 -183 c15 -25 43 -53 65
-66 59 -34 39 -58 -36 -44 -60 12 -134 97 -134 156 0 24 25 76 49 104 15 17
16 15 23 -44 4 -38 17 -78 33 -106z m648 139 c35 -18 66 -83 67 -140 1 -153
-130 -262 -279 -233 -30 5 -63 18 -73 27 -18 16 -18 17 9 28 44 19 92 64 115
108 18 35 20 53 16 129 l-6 88 27 6 c14 3 31 7 36 9 15 4 56 -6 88 -22z m-719
-222 c57 -62 133 -78 194 -41 43 26 58 25 96 -7 17 -14 46 -32 64 -40 17 -7
32 -19 32 -26 0 -46 105 -84 198 -73 58 7 143 8 150 1 2 -2 -4 -24 -13 -49
-16 -40 -23 -47 -59 -57 -25 -7 -83 -9 -146 -6 -167 8 -301 63 -452 184 -75
61 -128 135 -128 179 l1 29 16 -30 c8 -16 29 -45 47 -64z m110 -180 c89 -61
198 -113 276 -132 30 -7 108 -13 173 -12 64 0 117 -2 117 -4 0 -7 -86 -125
-114 -156 -13 -15 -45 -50 -70 -77 l-47 -50 -78 0 c-133 0 -275 59 -383 158
l-58 54 0 196 0 195 54 -60 c30 -32 89 -83 130 -112z m-2939 109 c55 -5 204
-21 330 -35 360 -39 397 -43 615 -60 112 -9 208 -19 213 -22 14 -8 1 -178 -18
-238 -8 -27 -52 -123 -96 -214 l-81 -163 -121 6 c-175 10 -385 25 -434 32 -32
4 -44 10 -49 27 -4 12 -70 87 -148 167 -78 80 -164 172 -192 205 -68 79 -224
294 -224 307 0 7 18 8 53 4 28 -4 97 -11 152 -16z m3583 -62 c-3 -7 -15 -14
-29 -16 -24 -4 -24 -3 -4 12 24 19 38 20 33 4z m-1238 -72 c0 -2 -11 -6 -25
-8 -14 -3 -25 -1 -25 3 0 5 11 9 25 9 14 0 25 -2 25 -4z m-31 -133 c-10 -101
-9 -113 7 -139 15 -23 15 -26 3 -17 -21 17 -29 7 -28 -31 1 -24 3 -26 6 -8 2
12 9 22 14 22 6 0 8 -3 6 -7 -2 -5 -7 -16 -11 -27 -5 -14 -9 -16 -20 -7 -10 9
-12 21 -6 48 5 20 11 82 15 137 6 105 13 151 20 144 3 -2 0 -54 -6 -115z m99
1 c10 -21 9 -28 -5 -42 -9 -9 -29 -36 -44 -60 -23 -36 -28 -40 -39 -27 -10 12
-10 19 -2 27 9 9 12 7 12 -7 0 -18 0 -18 15 1 12 17 12 20 0 30 -9 7 -14 26
-14 50 2 30 3 33 6 12 2 -16 9 -28 14 -28 6 0 8 -4 4 -9 -3 -5 -2 -12 3 -15 4
-2 8 6 8 20 0 13 -4 24 -8 24 -10 0 23 49 33 50 3 0 11 -12 17 -26z m397 -152
c96 -85 284 -162 398 -162 39 0 39 0 34 -32 -3 -18 -9 -59 -13 -91 l-7 -59
-31 6 c-40 8 -149 59 -201 94 -62 41 -175 135 -224 185 -42 44 -43 47 -31 76
7 17 15 31 17 31 3 0 29 -22 58 -48z m-2125 -342 c102 -6 195 -14 208 -16 l22
-4 -19 -38 c-11 -20 -61 -89 -112 -152 -50 -63 -103 -132 -117 -153 l-25 -37
-51 85 c-55 91 -108 158 -197 247 -53 52 -55 57 -40 73 13 14 28 16 81 11 36
-3 148 -10 250 -16z"/>
<path d="M5680 4990 c0 -5 5 -10 10 -10 6 0 10 5 10 10 0 6 -4 10 -10 10 -5 0
-10 -4 -10 -10z"/>
<path d="M3740 4806 c-105 -30 -176 -89 -226 -192 -33 -67 -38 -84 -38 -152 0
-87 19 -135 75 -190 82 -80 345 -178 569 -211 36 -6 124 -21 195 -35 72 -13
171 -29 220 -35 50 -6 134 -16 187 -23 206 -25 357 43 427 191 23 49 26 69 26
156 0 90 -3 106 -29 156 -31 62 -100 136 -157 167 -40 22 -108 37 -378 82
-101 17 -187 33 -191 35 -4 2 -61 12 -126 20 -65 9 -164 23 -219 30 -122 17
-274 18 -335 1z m191 -168 c194 -112 214 -126 230 -163 37 -80 17 -201 -44
-268 -18 -20 -55 -47 -82 -61 -50 -26 -52 -26 -109 -11 -110 29 -280 104 -342
152 -40 30 -74 108 -74 167 0 57 32 144 74 199 31 41 109 107 127 107 5 0 104
-55 220 -122z m746 -87 c95 -44 150 -214 111 -343 -14 -49 -85 -130 -143 -163
-41 -25 -45 -25 -136 -15 -132 15 -314 47 -337 59 -10 6 -26 25 -35 43 -14 29
-14 35 -1 53 74 100 85 154 57 271 -4 20 3 24 89 43 51 12 138 33 193 46 124
29 149 29 202 6z"/>
<path d="M3827 4493 c-4 -3 -7 -25 -7 -49 0 -40 1 -42 36 -49 20 -3 38 -5 40
-2 2 2 7 24 10 49 6 41 4 46 -17 51 -31 9 -54 9 -62 0z"/>
<path d="M4562 4338 c3 -42 4 -43 41 -46 l38 -3 -3 43 c-3 42 -4 43 -41 46
l-38 3 3 -43z"/>
<path d="M2778 4193 c7 -3 16 -2 19 1 4 3 -2 6 -13 5 -11 0 -14 -3 -6 -6z"/>
<path d="M6657 3336 c-25 -66 -15 -140 25 -183 34 -36 37 -27 9 29 -19 39 -26
67 -25 110 1 61 0 67 -9 44z"/>
<path d="M5467 2343 c-11 -10 -8 -25 3 -18 13 8 13 -1 -1 -28 -9 -18 -9 -20 1
-10 7 6 14 23 15 37 3 25 -5 33 -18 19z"/>
<path d="M260 6440 c0 -5 5 -10 10 -10 6 0 10 5 10 10 0 6 -4 10 -10 10 -5 0
-10 -4 -10 -10z"/>
<path d="M295 6401 c-4 -7 -3 -16 3 -20 6 -3 12 -24 15 -46 l4 -40 1 40 c1 50
-11 85 -23 66z"/>
<path d="M264 6290 c0 -52 1 -74 3 -47 2 26 2 68 0 95 -2 26 -3 4 -3 -48z"/>
<path d="M417 6155 c-9 -9 -17 -25 -17 -36 0 -16 7 -19 40 -19 33 0 40 3 40
20 0 11 -5 20 -11 20 -7 0 -17 7 -24 16 -10 15 -13 15 -28 -1z"/>
<path d="M263 6070 c0 -41 2 -58 4 -37 2 20 2 54 0 75 -2 20 -4 3 -4 -38z"/>
<path d="M418 6053 c12 -2 32 -2 45 0 12 2 2 4 -23 4 -25 0 -35 -2 -22 -4z"/>
<path d="M264 5765 c0 -77 2 -107 3 -67 2 40 2 103 0 140 -2 37 -3 4 -3 -73z"/>
<path d="M896 5796 c-3 -13 -9 -31 -12 -40 -4 -12 0 -16 15 -16 18 0 21 6 21
40 0 44 -14 54 -24 16z"/>
<path d="M7057 5788 c-3 -18 -8 -41 -12 -50 -4 -10 -3 -18 3 -18 5 0 12 15 15
33 3 17 8 40 12 50 4 9 3 17 -3 17 -5 0 -12 -15 -15 -32z"/>
<path d="M632 5720 c0 -14 2 -19 5 -12 2 6 2 18 0 25 -3 6 -5 1 -5 -13z"/>
<path d="M7040 5670 c0 -5 5 -10 10 -10 6 0 10 5 10 10 0 6 -4 10 -10 10 -5 0
-10 -4 -10 -10z"/>
<path d="M880 5640 c0 -18 3 -19 20 -10 11 6 20 15 20 20 0 6 -9 10 -20 10
-13 0 -20 -7 -20 -20z"/>
<path d="M6715 5650 c3 -5 15 -10 26 -10 10 0 19 5 19 10 0 6 -12 10 -26 10
-14 0 -23 -4 -19 -10z"/>
<path d="M6840 5627 c-41 -9 -43 -11 -20 -18 36 -10 73 -10 90 1 13 9 13 11 0
20 -8 5 -17 9 -20 9 -3 -1 -25 -6 -50 -12z"/>
<path d="M6792 5575 c-10 -12 -10 -15 2 -15 7 0 17 -7 20 -16 8 -22 21 -9 21
22 1 27 -22 32 -43 9z"/>
<path d="M983 5540 c0 -25 2 -35 4 -22 2 12 2 32 0 45 -2 12 -4 2 -4 -23z"/>
<path d="M6866 5553 c-4 -9 -2 -21 4 -27 7 -7 10 -2 10 17 0 31 -5 34 -14 10z"/>
<path d="M6560 5512 c0 -33 16 -43 27 -16 3 8 -2 23 -11 32 -15 15 -16 14 -16
-16z"/>
<path d="M6945 5510 c-3 -5 -1 -10 4 -10 6 0 11 5 11 10 0 6 -2 10 -4 10 -3 0
-8 -4 -11 -10z"/>
<path d="M1104 5469 c-3 -6 -1 -16 5 -22 8 -8 11 -5 11 11 0 24 -5 28 -16 11z"/>
<path d="M263 5380 c0 -25 2 -35 4 -22 2 12 2 32 0 45 -2 12 -4 2 -4 -23z"/>
<path d="M1340 5411 c0 -6 5 -13 10 -16 6 -3 10 1 10 9 0 9 -4 16 -10 16 -5 0
-10 -4 -10 -9z"/>
<path d="M1660 5280 c0 -11 5 -20 10 -20 6 0 10 9 10 20 0 11 -4 20 -10 20 -5
0 -10 -9 -10 -20z"/>
<path d="M1608 5283 c7 -3 16 -2 19 1 4 3 -2 6 -13 5 -11 0 -14 -3 -6 -6z"/>
<path d="M6546 5245 c-4 -19 -2 -43 3 -53 8 -13 10 -5 11 36 0 60 -5 67 -14
17z"/>
<path d="M6153 5095 c0 -22 2 -30 4 -17 2 12 2 30 0 40 -3 9 -5 -1 -4 -23z"/>
<path d="M6226 5085 c4 -8 10 -15 15 -15 5 0 9 7 9 15 0 8 -7 15 -15 15 -9 0
-12 -6 -9 -15z"/>
<path d="M6698 5023 c7 -3 16 -2 19 1 4 3 -2 6 -13 5 -11 0 -14 -3 -6 -6z"/>
<path d="M1513 4980 c0 -25 2 -35 4 -22 2 12 2 32 0 45 -2 12 -4 2 -4 -23z"/>
<path d="M1543 4980 c0 -25 2 -35 4 -22 2 12 2 32 0 45 -2 12 -4 2 -4 -23z"/>
<path d="M6400 5004 c0 -17 22 -14 28 4 2 7 -3 12 -12 12 -9 0 -16 -7 -16 -16z"/>
<path d="M261 4924 c0 -11 3 -14 6 -6 3 7 2 16 -1 19 -3 4 -6 -2 -5 -13z"/>
<path d="M6060 4900 c0 -22 0 -43 -1 -47 0 -4 4 -9 10 -11 7 -2 11 15 11 47 0
28 -4 51 -10 51 -5 0 -10 -18 -10 -40z"/>
<path d="M6097 4880 c-3 -12 0 -20 8 -20 8 0 11 8 8 20 -3 11 -7 20 -8 20 -1
0 -5 -9 -8 -20z"/>
<path d="M1580 4846 c0 -8 5 -18 10 -21 6 -3 10 3 10 14 0 12 -4 21 -10 21 -5
0 -10 -6 -10 -14z"/>
<path d="M6335 4773 c7 -81 11 -103 18 -92 7 12 -6 179 -15 179 -6 0 -7 -30
-3 -87z"/>
<path d="M6370 4820 c0 -22 5 -40 10 -40 6 0 10 18 10 40 0 22 -4 40 -10 40
-5 0 -10 -18 -10 -40z"/>
<path d="M1555 4800 c-8 -13 -1 -24 14 -19 6 3 7 10 2 18 -6 10 -10 10 -16 1z"/>
<path d="M263 4740 c0 -25 2 -35 4 -22 2 12 2 32 0 45 -2 12 -4 2 -4 -23z"/>
<path d="M1460 4740 c0 -5 5 -10 10 -10 6 0 10 5 10 10 0 6 -4 10 -10 10 -5 0
-10 -4 -10 -10z"/>
<path d="M6360 4630 c0 -5 5 -10 10 -10 6 0 10 5 10 10 0 6 -4 10 -10 10 -5 0
-10 -4 -10 -10z"/>
<path d="M1771 4503 c-1 -24 4 -43 9 -43 12 0 12 24 0 60 -7 21 -8 19 -9 -17z"/>
<path d="M1817 4506 c-5 -21 -6 -41 -3 -44 12 -11 17 7 14 44 l-3 39 -8 -39z"/>
<path d="M1852 4528 c-16 -16 -15 -43 3 -58 12 -10 15 -7 20 13 9 34 -6 62
-23 45z"/>
<path d="M5725 4530 c3 -5 13 -10 21 -10 8 0 14 5 14 10 0 6 -9 10 -21 10 -11
0 -17 -4 -14 -10z"/>
<path d="M2000 4471 c0 -6 -18 -11 -40 -11 l-40 0 -2 -82 c-1 -46 -3 -64 -5
-40 -3 34 -8 42 -24 42 -16 0 -19 -7 -19 -40 0 -36 -2 -40 -25 -40 -22 0 -24
-3 -15 -19 5 -11 10 -33 10 -50 0 -29 2 -31 40 -31 22 0 40 -5 40 -10 0 -7 6
-7 19 0 11 5 29 10 40 10 12 0 21 5 21 10 0 6 -7 10 -15 10 -11 0 -15 11 -15
40 0 29 4 40 15 40 8 0 15 8 15 19 0 10 7 24 15 31 20 16 19 35 -2 71 -15 25
-15 31 -4 38 9 6 10 11 2 15 -6 4 -11 2 -11 -3z"/>
<path d="M6080 4420 c0 -22 5 -40 10 -40 6 0 10 18 10 40 0 22 -4 40 -10 40
-5 0 -10 -18 -10 -40z"/>
<path d="M1740 4340 c0 -33 3 -40 20 -40 17 0 20 7 20 40 0 33 -3 40 -20 40
-17 0 -20 -7 -20 -40z"/>
<path d="M5807 4360 c3 -11 7 -20 8 -20 1 0 5 9 8 20 3 12 0 20 -8 20 -8 0
-11 -8 -8 -20z"/>
<path d="M5920 4326 c0 -16 6 -26 14 -26 9 0 12 7 9 20 -8 31 -23 34 -23 6z"/>
<path d="M2023 4260 c0 -25 2 -35 4 -22 2 12 2 32 0 45 -2 12 -4 2 -4 -23z"/>
<path d="M5840 4291 c0 -5 -17 -13 -37 -18 -44 -10 -52 -26 -21 -41 21 -10 20
-11 -14 -11 -39 -1 -53 -23 -23 -35 8 -3 15 -12 15 -21 0 -11 11 -15 43 -15
23 0 37 -4 31 -8 -6 -4 -14 -24 -18 -44 -5 -30 -4 -38 8 -38 8 0 16 -10 18
-22 l3 -23 23 23 c12 12 28 22 35 22 6 0 18 14 25 30 11 23 20 30 43 30 16 0
29 5 29 10 0 6 -13 10 -30 10 -28 0 -30 2 -30 40 0 38 -2 40 -30 40 -28 0 -30
2 -30 40 0 33 -3 40 -20 40 -11 0 -20 -4 -20 -9z m80 -166 c0 -8 -9 -15 -20
-15 -15 0 -20 -7 -20 -25 0 -18 -5 -25 -20 -25 -15 0 -20 7 -20 25 0 18 5 25
20 25 11 0 20 7 20 15 0 8 9 15 20 15 11 0 20 -7 20 -15z"/>
<path d="M2005 4190 c-7 -12 2 -30 16 -30 5 0 9 9 9 20 0 21 -15 27 -25 10z"/>
<path d="M2120 4179 c0 -17 -5 -20 -24 -17 -15 3 -27 0 -30 -8 -4 -10 3 -14
24 -14 17 0 30 5 30 10 0 6 9 10 20 10 13 0 20 7 20 20 0 13 -7 20 -20 20 -14
0 -20 -7 -20 -21z"/>
<path d="M5760 4115 c0 -28 15 -34 24 -9 10 25 7 34 -9 34 -9 0 -15 -9 -15
-25z"/>
<path d="M7216 3985 c-3 -9 -5 -33 -5 -53 2 -33 2 -32 9 13 8 53 6 66 -4 40z"/>
<path d="M1795 3950 c-9 -15 4 -30 26 -30 12 0 19 7 19 20 0 21 -33 29 -45 10z"/>
<path d="M5800 3860 c0 -33 3 -40 20 -40 17 0 20 7 20 40 0 33 -3 40 -20 40
-17 0 -20 -7 -20 -40z"/>
<path d="M5856 3883 c-11 -11 -6 -23 9 -23 8 0 15 4 15 9 0 13 -16 22 -24 14z"/>
<path d="M1832 3820 c-8 -26 -9 -47 -3 -62 6 -13 10 -18 10 -13 1 6 19 21 41
35 22 14 40 28 40 32 0 4 19 8 42 10 l42 3 -27 18 c-26 17 -27 17 -47 -3 -21
-21 -50 -27 -50 -10 0 5 -8 14 -18 19 -15 8 -20 3 -30 -29z"/>
<path d="M5905 3851 c-3 -5 -1 -12 5 -16 5 -3 10 1 10 9 0 18 -6 21 -15 7z"/>
<path d="M5855 3830 c-3 -5 1 -10 10 -10 9 0 13 5 10 10 -3 6 -8 10 -10 10 -2
0 -7 -4 -10 -10z"/>
<path d="M1786 3804 c-9 -25 -7 -64 4 -64 6 0 10 18 10 40 0 43 -4 50 -14 24z"/>
<path d="M2018 3808 c7 -7 12 -19 12 -27 -1 -13 -4 -12 -16 4 -15 19 -15 19
-10 -8 6 -32 -18 -46 -66 -41 -22 3 -28 -1 -30 -16 -3 -35 -5 -80 -4 -80 1 0
16 16 35 35 18 19 26 33 18 30 -8 -4 -14 0 -14 9 0 11 8 14 23 12 24 -5 90 54
77 69 -5 4 0 5 9 2 10 -3 20 -2 22 2 9 14 -6 21 -25 10 -13 -6 -19 -6 -19 1 0
5 -5 10 -12 10 -9 0 -9 -3 0 -12z m-83 -110 c-7 -32 -13 -32 -11 1 0 16 4 27
8 25 4 -2 5 -14 3 -26z"/>
<path d="M7217 3751 c-6 -29 2 -243 9 -250 2 -2 3 60 3 138 0 77 -2 141 -4
141 -1 0 -5 -13 -8 -29z"/>
<path d="M5500 3750 c0 -5 5 -10 10 -10 6 0 10 5 10 10 0 6 -4 10 -10 10 -5 0
-10 -4 -10 -10z"/>
<path d="M5930 3700 c0 -29 4 -40 15 -40 11 0 15 11 15 40 0 29 -4 40 -15 40
-11 0 -15 -11 -15 -40z"/>
<path d="M1820 3700 c0 -5 5 -10 10 -10 6 0 10 5 10 10 0 6 -4 10 -10 10 -5 0
-10 -4 -10 -10z"/>
<path d="M5798 3658 c23 -5 42 -13 42 -19 0 -14 28 -11 37 5 4 8 17 16 28 19
11 2 -18 5 -65 5 -77 0 -81 -1 -42 -10z"/>
<path d="M5718 3583 c32 -3 42 -8 41 -21 0 -10 -3 -12 -5 -5 -8 17 -34 4 -34
-17 0 -27 22 -30 43 -7 34 39 16 58 -51 55 -36 -1 -36 -2 6 -5z"/>
<path d="M1765 3531 c0 -47 10 -59 32 -37 4 4 4 6 -2 4 -10 -3 -15 4 -15 23 0
8 5 8 15 -1 22 -19 17 1 -8 32 l-22 27 0 -48z"/>
<path d="M5750 3440 c0 -16 -7 -20 -35 -20 -34 0 -35 -1 -35 -40 0 -22 -4 -40
-10 -40 -5 0 -10 -6 -10 -14 0 -8 -6 -17 -12 -20 -10 -5 -10 -7 0 -12 24 -11
13 -34 -18 -34 -29 0 -30 -2 -30 -45 l0 -45 40 0 c22 0 40 -4 40 -10 0 -5 5
-10 10 -10 6 0 10 7 10 15 0 8 5 15 10 15 6 0 10 33 10 80 0 73 2 80 20 80 18
0 20 -7 21 -67 0 -60 2 -65 12 -43 6 14 15 27 19 31 9 6 -12 71 -27 81 -7 5
-6 14 3 28 6 11 12 27 12 35 0 8 7 15 15 15 23 0 18 16 -10 28 -34 16 -35 15
-35 -8z"/>
<path d="M6246 3408 c3 -5 10 -6 15 -3 13 9 11 12 -6 12 -8 0 -12 -4 -9 -9z"/>
<path d="M1690 3365 c-7 -8 -9 -15 -6 -15 4 0 14 7 22 15 9 8 11 15 6 15 -5 0
-15 -7 -22 -15z"/>
<path d="M5578 3278 c-2 -7 -1 -33 3 -58 6 -42 6 -42 8 -10 1 19 4 45 7 58 6
23 -11 32 -18 10z"/>
<path d="M1615 3261 c-3 -5 -1 -12 5 -16 5 -3 10 1 10 9 0 18 -6 21 -15 7z"/>
<path d="M6087 3249 c7 -7 15 -10 18 -7 3 3 -2 9 -12 12 -14 6 -15 5 -6 -5z"/>
<path d="M5840 3195 c0 -8 5 -15 10 -15 6 0 10 7 10 15 0 8 -4 15 -10 15 -5 0
-10 -7 -10 -15z"/>
<path d="M1606 3185 c-9 -26 -7 -32 5 -12 6 10 9 21 6 23 -2 3 -7 -2 -11 -11z"/>
<path d="M6009 3123 c-1 -5 -1 -10 -1 -14 0 -3 -8 -10 -19 -17 -12 -8 -19 -9
-19 -1 0 5 -4 7 -10 4 -6 -4 -5 -11 2 -19 10 -11 18 -8 40 13 16 14 28 29 28
33 0 10 -20 10 -21 1z"/>
<path d="M5618 3103 c12 -2 32 -2 45 0 12 2 2 4 -23 4 -25 0 -35 -2 -22 -4z"/>
<path d="M1712 3025 c0 -16 2 -22 5 -12 2 9 2 23 0 30 -3 6 -5 -1 -5 -18z"/>
<path d="M5618 2973 c-2 -25 2 -57 9 -71 7 -13 13 -46 13 -73 0 -37 4 -49 15
-49 10 0 15 11 16 38 1 20 4 48 8 62 6 21 9 16 15 -28 4 -30 11 -50 16 -47 6
4 10 13 10 21 0 17 19 18 43 0 18 -14 24 -32 7 -21 -6 4 -5 -5 2 -19 6 -14 15
-26 19 -26 8 0 5 36 -6 62 -11 26 5 45 20 24 11 -14 13 -15 19 -1 3 9 0 15 -9
15 -11 0 -15 13 -15 50 0 39 -4 52 -20 60 -11 6 -20 20 -20 30 0 17 -7 20 -49
20 l-48 0 -9 -42 -8 -43 -4 43 c-4 56 -19 54 -24 -5z m105 -45 c4 -10 8 -9 16
2 10 13 12 13 21 0 6 -10 10 -11 10 -2 0 6 5 12 10 12 11 0 14 -43 3 -53 -3
-4 -12 -2 -20 4 -10 9 -13 7 -13 -10 0 -12 -6 -21 -15 -21 -10 0 -15 10 -15
30 0 17 -4 30 -10 30 -5 0 -10 5 -10 10 0 14 17 12 23 -2z"/>
<path d="M5857 3003 c4 -11 2 -14 -5 -9 -7 4 -12 3 -12 -3 0 -5 5 -13 10 -16
6 -3 10 -11 10 -16 0 -6 -4 -7 -10 -4 -6 3 -7 -1 -4 -9 3 -9 1 -16 -5 -16 -6
0 -11 -9 -11 -20 0 -22 15 -27 26 -8 4 7 3 8 -4 4 -8 -5 -10 -2 -6 8 3 9 10
13 15 10 5 -3 6 2 3 11 -4 10 -2 15 7 13 8 -2 15 7 17 21 2 14 0 21 -7 17 -5
-4 -8 -14 -5 -24 5 -15 4 -15 -6 1 -8 13 -9 22 -1 31 9 10 8 15 -3 19 -11 4
-13 1 -9 -10z"/>
<path d="M5904 2988 c0 -16 2 -16 18 -1 10 9 18 17 18 19 0 1 -8 2 -18 1 -10
0 -18 -9 -18 -19z"/>
<path d="M5586 2925 c4 -8 8 -15 10 -15 2 0 4 7 4 15 0 8 -4 15 -10 15 -5 0
-7 -7 -4 -15z"/>
<path d="M1613 2853 c9 -2 25 -2 35 0 9 3 1 5 -18 5 -19 0 -27 -2 -17 -5z"/>
<path d="M5477 2783 c-2 -5 0 -19 4 -33 7 -23 7 -22 6 8 -1 33 -3 37 -10 25z"/>
<path d="M5772 2715 c0 -16 2 -22 5 -12 2 9 2 23 0 30 -3 6 -5 -1 -5 -18z"/>
<path d="M5672 2700 c0 -14 2 -19 5 -12 2 6 2 18 0 25 -3 6 -5 1 -5 -13z"/>
<path d="M1682 2680 c0 -19 2 -27 5 -17 2 9 2 25 0 35 -3 9 -5 1 -5 -18z"/>
<path d="M5496 2697 c3 -10 9 -15 12 -12 3 3 0 11 -7 18 -10 9 -11 8 -5 -6z"/>
<path d="M1638 2527 c11 -13 10 -16 -5 -20 -15 -4 -14 -5 4 -6 31 -1 36 13 10
29 -20 12 -21 12 -9 -3z"/>
<path d="M1672 2526 c7 -8 15 -12 17 -11 5 6 -10 25 -20 25 -5 0 -4 -6 3 -14z"/>
<path d="M7233 2505 c0 -22 2 -30 4 -17 2 12 2 30 0 40 -3 9 -5 -1 -4 -23z"/>
<path d="M5680 2520 c0 -5 9 -10 21 -10 11 0 17 5 14 10 -3 6 -13 10 -21 10
-8 0 -14 -4 -14 -10z"/>
<path d="M5765 2490 c-3 -5 -1 -10 4 -10 6 0 11 5 11 10 0 6 -2 10 -4 10 -3 0
-8 -4 -11 -10z"/>
<path d="M7233 2385 c0 -27 2 -38 4 -22 2 15 2 37 0 50 -2 12 -4 0 -4 -28z"/>
<path d="M271 2394 c0 -11 3 -14 6 -6 3 7 2 16 -1 19 -3 4 -6 -2 -5 -13z"/>
<path d="M7233 2260 c0 -36 2 -50 4 -32 2 17 2 47 0 65 -2 17 -4 3 -4 -33z"/>
<path d="M1294 2292 c4 -3 14 -7 22 -8 9 -1 13 0 10 4 -4 3 -14 7 -22 8 -9 1
-13 0 -10 -4z"/>
<path d="M1249 2243 c-12 -16 -12 -17 1 -7 8 6 22 14 30 17 13 5 12 6 -1 6 -9
1 -23 -7 -30 -16z"/>
<path d="M271 2234 c0 -11 3 -14 6 -6 3 7 2 16 -1 19 -3 4 -6 -2 -5 -13z"/>
<path d="M1216 2208 c3 -5 10 -6 15 -3 13 9 11 12 -6 12 -8 0 -12 -4 -9 -9z"/>
<path d="M1125 2138 c1 -13 6 -21 11 -19 10 3 7 21 -5 34 -4 4 -7 -3 -6 -15z"/>
<path d="M7233 2100 c0 -25 2 -35 4 -22 2 12 2 32 0 45 -2 12 -4 2 -4 -23z"/>
<path d="M1045 2040 c-3 -5 -2 -18 4 -27 7 -14 9 -12 8 10 -2 30 -3 31 -12 17z"/>
<path d="M1067 1944 c7 -3 10 -11 7 -19 -3 -7 0 -16 5 -20 6 -3 8 -11 5 -17
-4 -7 -2 -8 5 -4 6 4 8 12 5 18 -5 7 -1 9 9 5 11 -4 14 -2 10 8 -3 8 -9 13
-13 10 -4 -3 -10 2 -14 10 -3 8 -11 15 -18 14 -9 0 -10 -2 -1 -5z"/>
<path d="M977 1803 c-4 -3 -7 -11 -7 -17 0 -6 5 -5 12 2 6 6 9 14 7 17 -3 3
-9 2 -12 -2z"/>
<path d="M7223 1640 c0 -36 2 -50 4 -32 2 17 2 47 0 65 -2 17 -4 3 -4 -33z"/>
<path d="M7224 1427 l-1 -82 10 73 c6 43 6 77 1 82 -5 5 -9 -25 -10 -73z"/>
<path d="M7210 1330 c0 -5 5 -10 10 -10 6 0 10 5 10 10 0 6 -4 10 -10 10 -5 0
-10 -4 -10 -10z"/>
<path d="M260 1278 c0 -7 5 -20 10 -28 8 -12 10 -9 10 13 0 15 -4 27 -10 27
-5 0 -10 -6 -10 -12z"/>
<path d="M7216 1213 c-12 -101 -17 -473 -7 -473 7 0 11 28 12 73 0 39 3 156 5
260 4 186 1 230 -10 140z"/>
<path d="M261 1184 c0 -11 3 -14 6 -6 3 7 2 16 -1 19 -3 4 -6 -2 -5 -13z"/>
<path d="M2117 950 c-7 -238 -51 -460 -89 -448 -7 2 -22 32 -33 66 -11 34 -23
62 -26 62 -3 0 -9 -75 -12 -167 -4 -93 -10 -178 -13 -191 -5 -19 -2 -22 19
-22 30 0 35 19 40 135 2 66 3 70 27 73 53 8 79 59 101 207 15 102 17 411 3
445 -9 20 -12 -15 -17 -160z"/>
<path d="M260 1080 c0 -11 5 -20 10 -20 6 0 10 9 10 20 0 11 -4 20 -10 20 -5
0 -10 -9 -10 -20z"/>
<path d="M6776 1023 c-6 -14 -5 -15 5 -6 7 7 10 15 7 18 -3 3 -9 -2 -12 -12z"/>
<path d="M269 1018 c-7 -25 -7 -138 1 -138 6 0 10 29 10 70 0 39 -2 70 -5 70
-3 0 -5 -1 -6 -2z"/>
<path d="M6781 984 c0 -11 3 -14 6 -6 3 7 2 16 -1 19 -3 4 -6 -2 -5 -13z"/>
<path d="M6770 865 c0 -5 5 -17 10 -25 5 -8 10 -10 10 -5 0 6 -5 17 -10 25 -5
8 -10 11 -10 5z"/>
<path d="M263 740 c0 -25 2 -35 4 -22 2 12 2 32 0 45 -2 12 -4 2 -4 -23z"/>
<path d="M7200 659 c0 -38 4 -68 8 -65 13 8 15 136 3 136 -7 0 -11 -28 -11
-71z"/>
<path d="M286 645 c3 -28 3 -29 -11 -11 -14 18 -15 15 -15 -37 0 -31 5 -57 10
-57 6 0 10 -19 11 -42 l1 -43 8 35 c12 55 19 161 10 155 -5 -3 -11 3 -13 12
-2 10 -3 5 -1 -12z"/>
<path d="M6724 628 c-12 -14 -13 -18 -3 -10 9 6 19 9 22 5 4 -3 7 1 7 10 0 22
-3 21 -26 -5z"/>
<path d="M6703 581 c0 -11 5 -18 9 -15 4 3 5 11 1 19 -7 21 -12 19 -10 -4z"/>
<path d="M7200 570 c0 -5 5 -10 10 -10 6 0 10 5 10 10 0 6 -4 10 -10 10 -5 0
-10 -4 -10 -10z"/>
<path d="M6665 528 c-8 -18 -22 -44 -31 -58 -15 -24 -15 -24 1 -2 20 25 40 30
31 7 -7 -18 5 -20 22 -3 9 9 12 9 12 -2 0 -13 2 -13 10 0 12 19 13 33 1 25 -5
-3 -12 5 -14 17 l-4 23 -2 -22 c0 -13 -5 -23 -11 -23 -12 0 -12 -2 -1 38 12
41 5 41 -14 0z"/>
<path d="M7208 488 c5 -107 9 -117 11 -25 0 48 -2 87 -6 87 -5 0 -7 -28 -5
-62z"/>
<path d="M263 445 c0 -38 2 -53 4 -32 2 20 2 52 0 70 -2 17 -4 1 -4 -38z"/>
<path d="M302 430 c0 -19 2 -27 5 -17 2 9 2 25 0 35 -3 9 -5 1 -5 -18z"/>
<path d="M6598 410 c-18 -32 -18 -33 6 -24 8 3 12 12 9 21 -4 11 -2 14 5 9 7
-4 12 -1 12 8 0 25 -13 19 -32 -14z"/>
<path d="M531 414 c0 -11 3 -14 6 -6 3 7 2 16 -1 19 -3 4 -6 -2 -5 -13z"/>
<path d="M6631 402 c-6 -11 -6 -24 0 -33 5 -7 9 -18 9 -24 0 -5 -4 -4 -9 3 -6
11 -14 8 -35 -13 -15 -15 -29 -25 -32 -23 -5 6 35 48 46 48 6 0 10 5 10 10 0
26 -44 -6 -68 -49 -11 -18 -11 -26 -1 -35 9 -8 10 -8 5 2 -5 7 -1 12 10 12 10
0 26 7 36 17 10 9 21 13 25 9 4 -4 1 -11 -7 -16 -9 -6 -10 -10 -3 -10 7 0 17
8 22 18 10 16 10 16 11 0 0 -34 18 -18 25 22 10 59 33 47 36 -18 1 -17 3 -21
6 -10 2 10 15 21 29 24 32 8 30 20 -3 29 -26 7 -26 8 -8 15 16 6 12 10 -25 19
-25 7 -51 14 -57 16 -7 2 -17 -4 -22 -13z"/>
<path d="M7142 376 c7 -8 15 -12 17 -11 5 6 -10 25 -20 25 -5 0 -4 -6 3 -14z"/>
<path d="M7184 334 c3 -9 6 -18 6 -20 0 -2 4 -4 9 -4 5 0 7 9 4 20 -3 11 -10
20 -15 20 -6 0 -7 -7 -4 -16z"/>
<path d="M7040 290 c0 -6 7 -10 15 -10 8 0 15 2 15 4 0 2 -7 6 -15 10 -8 3
-15 1 -15 -4z"/>
<path d="M7205 290 c3 -5 10 -10 16 -10 5 0 9 5 9 10 0 6 -7 10 -16 10 -8 0
-12 -4 -9 -10z"/>
<path d="M6548 263 c7 -3 16 -2 19 1 4 3 -2 6 -13 5 -11 0 -14 -3 -6 -6z"/>
<path d="M6658 263 c12 -2 32 -2 45 0 12 2 2 4 -23 4 -25 0 -35 -2 -22 -4z"/>
<path d="M6934 258 c77 -4 171 -5 210 -1 54 6 20 9 -139 9 l-210 1 139 -9z"/>
</g>
</svg>
